<?xml version="1.0" encoding="UTF-8"?>
<svg version="1.1" viewBox="0 0 1064 1064" width="1280" height="1280" xmlns="http://www.w3.org/2000/svg">
<path transform="translate(286,112)" d="m0 0h11l23 4 26 8 24 11 28 16 12 5 14 3h9l32-5 35-5 32-2h28l34 2 35 5 28 6 4 1h8l14-8 19-11 21-11 28-11 19-5 19-3h13l3 1 4 8 7 23 4 20 2 14v27l-4 24-4 16 4 6 12 16 12 21 8 20 5 17 4 20 3 24v43l-4 29-6 26-11 33-7 15-8 15-12 17-12 13-8 8-17 13-20 12-16 8-21 8-19 6-37 8-27 5-1 2 4 2 8 9 9 17 7 21 3 16 1 15v156l-2 15-6 18-8 14-8 10-11 11-15 10-16 7-17 5-16 3-11 1h-36l-18-2-19-5-15-6-12-7-10-8-12-12-9-14-7-15-4-18v-98l-25 4-12 1h-25l-18-2-17-4-16-6-15-8-11-9-11-11-11-16-8-16-12-25-10-15-12-14-7-7-18-13-9-7-7-9v-7l5-4 9-3h17l17 4 16 7 14 10 15 15 10 14 12 16 9 10 13 10 14 8 13 5 12 3 7 1h19l17-3 20-6 7-4 8-29 7-15 6-9 8-10-1-1-28-4-28-6-24-7-25-10-21-11-12-8-13-10-12-11-11-12-11-15-9-15-9-19-7-19-7-28-4-26-1-8-1-29-1-8 1-5 1-24 4-23 8-26 12-25 7-11 15-20 1-7-5-21-2-17v-33l5-29 6-20 5-8z" fill="#11CDF3"/>
<path transform="translate(286,112)" d="m0 0h11l23 4 26 8 24 11 28 16 12 5 14 3h9l32-5 35-5 32-2h28l34 2 35 5 28 6 4 1h8l14-8 19-11 21-11 28-11 19-5 19-3h13l3 1 4 8 7 23 4 20 2 14v27l-4 24-4 16 4 6 12 16 12 21 8 20 5 17 1 18 2 11v14l-2 17-3 3h-2v-4l-4-1-2-3-6 2 2-6-6-1-3-1-3 1v2l-6-2-15-1-19 3-11-1-24-1-5 1v-1h-17l-5 2-7 1h-5l-5 3-12 2v-4l-3-1-12 2-3 2-12 1-1-2v-1l-1-3-14 2h-47l-18 1h-95l-15 1h-12l-15-1h-9l-6 1-18-5-9-1-4-2-13 1-18 1-10 1-4-1-2 4-1 1h-7l-8-2-5 2-11-1-5 3h-8l-6 1h-10l-10-1v3l-9-1-9-3-15-6v4l-2 1-4-3-3 6-6-1v2h-2l-2-3v-3h-2v4l-3 1-3-1v-13l1-7v-14l3-16v-7l8-24 11-22 9-13 12-16 1-7-5-21-2-17v-33l5-29 6-20 5-8z" fill="#11F1F4"/>
<path transform="translate(804,554)" d="m0 0 1 3-11 11-17 13-20 12-16 8-21 8-19 6-37 8-27 5-1 2 4 2 8 9 9 17 7 21 3 16 1 15v156l-2 15-6 18-8 14-8 10-11 11-15 10-16 7-17 5-16 3-11 1h-36l-18-2-19-5-15-6-12-7-10-8-12-12-9-14-7-15-4-18v-98l-25 4-12 1h-25l-18-2-17-4-16-6-15-8-11-9-11-11-11-16-8-16-12-25-10-15-12-14-7-7-18-13-9-7-7-9v-7l5-4 9-3h17l17 4 16 7 14 10 15 15 10 14 12 16 9 10 13 10 14 8 13 5 12 3 7 1h19l17-3 20-6 7-4 8-29 7-15 6-9 8-10-1-1-28-4-28-6-24-7-25-10-21-11-12-8-13-10-11-10 1-3 1 2h3l5 5 10 5 2 6 6 2 6 1 20 11 15 7 6 2 19 3 17 4 7 1 15 4 11 1 8 1 4 2 9 1 4 2 8 1h2 5l3 5v3l10-2 19 1 4 2 5-1 6 3 5-2h5l1-5 8-3 15-1 9-1h15l11-1 8 1 9-2h3v-2h8l4 1 3-2 7 2 5-3h5l4-1-1-3 20-8 27-6 10-3 19-3 4 1 10 1 14-3 8-5 6-1 3-2 10-2v-2l7-2 10-7 3-3 5-4h2l2-4z" fill="#0EA6F0"/>
<path transform="translate(667,715)" d="m0 0h1v151l-2 15-6 18-8 14-8 10-11 11-15 10-16 7-17 5-16 3-11 1h-36l-18-2-19-5-15-6-12-7-10-8-12-12-9-14-7-15-4-18v-98l-25 4-12 1h-25l-18-2-17-4-16-6-15-8-11-9-11-11-3-4v-2l3-1 7 6 4 1 8 7 10 3 3 2 7 2 10 2 5-2h31v2l6-1v-1l27 1h13l10 4 8 1 7 1 11 3 9 2 2 1h8l3 2v3h10l6 1 5-2h10l16-2v-2l11-3 4-2h7l14-2 15-2h12l2 1 11 1 5 2 6-1 1 1h9l5 1 5-3 8-2 9-1 5-4 10 2 5-2h3l1-2h3v2l5 2 2 2 1 3 3 1v-12l2 2z" fill="#0C84ED"/>
<path transform="translate(231,458)" d="m0 0 2 3 2 7 2 1 1 8 3 1 1 5 1 4 3 6-1 3 2 1 3 5v9h2l1-2 2 10 2 1 2 4 3-1v4l4 2 5 8 1 3h2l3 3h2l1 3-1 2h9l2 4 5 5 6 3 3 2v-2l4-2 14 2v3l2 1 1 1 18-1h10l-3-3 3-1-4-5 10 1-3-5-4-3h-10l-10-3-12-2-3-1v-5l13 1 6 2 21 2h14l10 2v2l6 1 4-1 15 2h36l8 2h9l16 2 5 1v2h2l1-3 10 1 2 1v-2h22l17-1 6 2 2-2 7 1 3 1v-2l4-1h45l10 1 8-1 22-1 5-1h7v-3l4-3 10-1 4-2h21l26-2 5 1-3 1-1 3h-2v-2l-4 2h-9l-1 1h18l9-2 4 1-10 4h-6l-5 2-7-1v3l-6 2-5 5-3-2v-2l-4 4-1 3 9-2 14-1 43-7 21-6 16-5 1-3 4-2 4-5 2-2 1-4 6-3h2l1-4 7-1 2-4 5-1 6-10 2-5 5-1v-2l4-2 1 5-8 19-11 19-11 15-7 8h-3l-5 4-5 5-5 2-1 3-10 7h-4l-1 2-2-1v2l-12 4-4 2-5 1-6 4-16 3-10-1-4-1-25 5-32 8-13 5-3 2v2l-4 2-8 1-3 2-7-2-3 2-11-2v2l-12 3-14-1-7 1h-17l-5 1-15 1-8 3-1 4-7 1-4 2-5-3-6 1-3-2-23-1-3 2-3-1-3-7-5-1-1 2-4-2h-7l-3-2-8-1-7-3h-9l-15-3-8-2-6-1-17-4-19-3-13-5-19-10-12-6-6-1-5-5v-3l-9-3-6-5v-2l-4-1h-3l-10-11-11-15-9-15-9-19-7-19-5-19z" fill="#12BCF0"/>
<path transform="translate(399,372)" d="m0 0 8 1 5 1 21 5 5 1 7-1h9l11 1h18l10-1h102l10-1h50l12-2 2 3 1 2-2 1 12-1 3-2 13-2 3 2-1 4 15-4 2-2h7l7-2 5-1h16l1 1 8-1 21 1 9 1 22-3 12 1 6 3v-2l4-2 8 3-1 4-1 2 4-3 4 2v2l4 1v4l3-3h2v-8h1v27l-3 8-2 7-3 12-3-4-1-2-2 1v-5l-7-1-6-1v-4l-8 2-2-2-10 1-9 2-5 3-4 1v-2h-32l-13-2v2h-2v3h-12l-6 2v-8l-12 3-4 3h-5l2-6 3-3 1-3-5-1-1-1-13-2-7-1h-7l-7-2v-5l-2 1-18 2-8 2-16 2h-73-3-13-3-5l-3-1-5 1-3-1h-16l-5 1h-3-14l-6-2h-16l-9-2h-5l-1-1h-8l-10 1-5-2-4-2-2-2-4 2-3 3-4-2-3-3-4 4-4 1-2-2v-3h-2l1 7-2 3-15-2-5-2-12-3 4 6 1 3h5l2-1 10 5v3l-3 1-11 1-4 2h-10l1 6-13 2h-4l-1 3-5-1 1 3-15 1-9-1-15-4-6-2-11-1-10-1-2 4-8-1v-2l-5-2-3 3-4-4h-4l1 4h-3v-4h-4l-2-5-2-4h-2l-1-29-1-3 2-2v3h6v-4h2l2 2v4h2v-2l6 1 1-4 2-3 5 3-1-4 3-1 15 7 17 4-1-4 11 1h13l14-2 2-2 11 1 7-2 6 2h7l3-4 21-1 13-1z" fill="#12DDF4"/>
<path transform="translate(269,649)" d="m0 0 4 2 10 14 9 11 10 9 15 10 16 7 15 4 7 1 19 1v2h-13l-11 1-10-3-9-1-24-12-12-12v-2l-4-2-2-4-4-2-6-7-2-6h-2l-6-9z" fill="#0C8AED"/>
<path transform="translate(230,326)" d="m0 0h1l-1 12-2 10v18l-2 13-1 3 1 5 1 38 2 12v9l-2-2-3-23-1-29-1-8 1-5 1-24 4-23z" fill="#10B9F1"/>
<path transform="translate(426,666)" d="m0 0 1 3-2 8-1 14-5 7-9 6-5 1-11 3-10 1-4 1-4-2 4-2 15-3 18-6 5-3 7-26z" fill="#0C8AED"/>
<path transform="translate(859,357)" d="m0 0 2 3 1 9v43l-2 10h-1l-1-11v-40z" fill="#0FABF0"/>
<path transform="translate(856,433)" d="m0 0 2 1v7l-6 26-3 10h-3l8-30z" fill="#12C2F1"/>
<path transform="translate(230,326)" d="m0 0h1l-1 12-3 19-2 17h-1v-19l4-23z" fill="#10AFF0"/>
<path transform="translate(859,357)" d="m0 0 2 3 1 13h-2v42h-2v-44z" fill="#12BCF0"/>
<path transform="translate(855,330)" d="m0 0 2 4 3 18-1 16h-1l-1-14-2-11z" fill="#11D0F3"/>
<path transform="translate(226,357)" d="m0 0h1l1 9-2 13-1 3 1 4-3 1-1-3 2-10z" fill="#11C8F2"/>
<path transform="translate(222,610)" d="m0 0 6 1 11 6 8 6-2 1-12-7v-2l-5-1-6-3z" fill="#0C90EE"/>
<path transform="translate(760,530)" d="m0 0 1 2-4 2h-4l-3 3-7 1-1-3z" fill="#13BCF0"/>
<path transform="translate(663,681)" d="m0 0 2 3 1 5v12l-2-3-1-8z" fill="#0C8CED"/>
<path transform="translate(177,607)" d="m0 0 4 1-3 3-3 1-2 5h-1v-6z" fill="#0C8EEE"/>
<path transform="translate(855,330)" d="m0 0 2 4 1 6-1 8h-1l-1-5z" fill="#12DAF4"/>
<path transform="translate(230,326)" d="m0 0h1l-1 12-2 4-1-5z" fill="#10BBF1"/>
</svg>
