<?xml version="1.0" encoding="UTF-8"?>
<svg version="1.1" viewBox="0 0 2048 1362" width="1280" height="1280" xmlns="http://www.w3.org/2000/svg">
<path transform="translate(0)" d="m0 0h2048v1362h-2048z" fill="#FEFEFE"/>
<path transform="translate(564,226)" d="m0 0h765l14 2 13 5 11 8 12 12 8 13 5 13 1 713v77l-3 14-8 15-8 10-9 8-10 6-14 5-17 2h-213l-563-1-12-3-10-4-12-8-11-11-8-14-3-9-1-5-1-14v-771l2-15 5-12 9-13 11-10 14-8 10-3z" fill="#0766C0"/>
<path transform="translate(1081,554)" d="m0 0h38l24 3 23 6 15 6 15 8 12 9 7 6 9 11 9 14 8 16 7 19 6 26 4 33 2 46v236l-4 2-128 1-3-2-1-20-1-229-2-15-5-18-7-14-8-10-10-7-11-5-14-3h-23l-17 4-16 8-10 8-9 12-7 15-5 24-2 19-1 230-6 2-99 1h-29l-1-3-1-55v-66l1-303 1-3h126l2 2 1 53 10-12 9-11 8-8 14-11 13-8 19-9 17-5z" fill="#FEFEFE"/>
<path transform="translate(624,566)" d="m0 0h134l1 425-3 4-131 1-2-1-1-11-1-96v-176l1-142z" fill="#FEFEFE"/>
<path transform="translate(686,350)" d="m0 0 14 1 17 4 16 8 11 8 8 8 8 13 5 12 3 12v24l-4 15-7 14-8 11-10 10-13 8-12 5-14 3h-19l-17-4-14-6-11-8-10-10-9-14-5-13-3-15v-17l4-17 7-14 7-9 5-6 14-11 14-7 14-4z" fill="#FEFEFE"/>
<path transform="translate(1483,1013)" d="m0 0h25l12 3 13 7 13 12 7 12 3 9 2 11v14l-4 15-5 10-10 13-11 8-8 4-18 4h-13l-16-4-10-5-12-11-9-12-5-13-1-6v-25l4-13 7-12 10-10 12-7z" fill="#FEFEFE"/>
<path transform="translate(492,289)" d="m0 0 3 4 3 17 1 11 1 8-1 1 1 8 1 4v25l1 3h-2v2h-2l-1 15h3l2 4-4 1-2-1 1 61 2 51 1 68 2 34 1 25 1 52 1 31v95l-1 73-1 25-1 47-2 43 1 26v41h2l2 17 3 3 1-3 1 5-1 2h2l5 12 9 6 10 6 1 3h-6l-7-5-2-4h-4l-2 2-2 1 5 5 8 5 15 6v1l-8-1-12-6-9-7-9-9-8-14-3-9-1-5v-782z" fill="#065CBE"/>
<path transform="translate(759,567)" d="m0 0h1l2 10 2 6 2 21 1 41v11l2 6 1 10 1 48v59l1 32v105l-1 40-1 14-3 10-3 12-3 3-6 1 3-5z" fill="#065CBE"/>
<path transform="translate(1029,675)" d="m0 0h6v2l-7 2v2l-9 6-5 5-11 8-5 5-1 4-4 10-1 6-3 9-2 10-1 1v10l1 4-4 1-1 8-3-1 2 2v13l-1 3h2v-16l1-6 3 2v2h2v35l3 50h-1v11l1 3-1 5 1 1v9l-1 4 1 18-1 2-1 40h-1l-2-10-1-2 1 18-1 21-4 18-1 2h-2l-1 2-1-98v-133l3-25 5-21 8-15 10-12 13-9 11-5z" fill="#065CBE"/>
<path transform="translate(1483,1013)" d="m0 0h25l12 3 13 7 13 12 7 12 3 9 2 11v14l-4 15-5 10-10 13-11 8-8 4-18 4h-13l-16-4-10-5-12-11-9-12-5-13-1-6v-25l4-13 7-12 10-10 12-7zm7 7-12 3-14 7-10 9-6 9-4 11v27l4 12 6 11 7 7 11 7 12 4 5 1h13l13-4 11-6 8-7 9-13 4-9 1-5v-17l-3-15-7-12-8-8-10-6-9-4-10-2z" fill="#065DBE"/>
<path transform="translate(1496,1039)" d="m0 0 13 2 6 3 5 6 2 5v12l-4 6-9 4-1 6 10 14 1 6-3 3-5-3-8-17-6-5-9-3-4 1v30l-5-1-4-3-2-7v-47l2-7 4-3 3-1z" fill="#065DBE"/>
<path transform="translate(1259,711)" d="m0 0 2 2 2 21 1 30 2-2 2 8v78l-1 13h-1l-1 14 1 38 2 46v15l-3 16-5 6h-6l2-2 3-1z" fill="#065DBE"/>
<path transform="translate(1172,557)" d="m0 0 7 1 6 2 2-1 12 6 5 3 11 7 3 3 3 5 8 9 9 15 7 10v8h2l2 8 1 5 5 11-1 5-2-1-5-14-1-5h-2l2 9h-2l-9-21-11-18-9-10-5-5-8-7-15-9-7-4 3-1h6l7 4-1-3-4-2-10-6-9-3z" fill="#065CBE"/>
<path transform="translate(548,227)" d="m0 0h237v1l-211 1-8 1-1 2h-10l-15 1v2l-14 7-16 13-8 9-3 7h-2l-2 5-2 1 1-9 6-11 8-10 9-8 14-8 10-3z" fill="#065CBE"/>
<path transform="translate(1122,832)" d="m0 0h1l1 109v50l-2-2-1-4-1-1-2-13-1-8v-8l-1-7v-9l1-9h1v-82l2-1 1 23z" fill="#065CBE"/>
<path transform="translate(688,342)" d="m0 0 8 1 6-1 4 1h14l1 3-14 2-1 3h-20l-14 2-14 5-13 8-11 9-8 10h-2l1-6 4-8 15-13 4-3h2l2-4 10-4 18-1 3-1 1-2z" fill="#065CBE"/>
<path transform="translate(1491,1048)" d="m0 0h12l7 3 2 4v13l-5 3-5 1h-15l-4-3v-16l4-4z" fill="#FEFEFE"/>
<path transform="translate(1444,1055)" d="m0 0 1 4v27l4 12 6 11 10 9 12 6 12 3 11 1v1l-9 1 7 2 10 1v1l-6 1h-13l-16-4-10-5v-3l-8-6-4-5v-7h-2l-5-7-3-16v-18z" fill="#0766C0"/>
<path transform="translate(1078,548)" d="m0 0h7l-2 2v4l-30 6-16 6-21 11h-3l-1-4 9-9 23-8 12-3h4v-2z" fill="#065DBE"/>
<path transform="translate(1380,1090)" d="m0 0h1v9l-7 9-9 8-10 6h-6l-2-1v-2l-6 1h-18v-1l19-2-1-5h3v3l9-3 11-6 1-5 5-8h7z" fill="#065CBE"/>
<path transform="translate(737,357)" d="m0 0 5 1 7 6 2 2 6 10 8 11 5 12-1 12 1 1v6l-1-2h-2l-4-15-8-16-7-9-10-9-9-6 2-1 7 3h3l-4-5z" fill="#065DBE"/>
<path transform="translate(769,419)" d="m0 0 4 4 1 3v12l-2 6 5-1 1 4-3 10-2 9-2 2h-2l-3 1h-3-4v2h-3l2-5 5-11 5-17z" fill="#065CBE"/>
<path transform="translate(839,566)" d="m0 0h2l-1 107-1 22-2-3-1-12v-82l2-14v-15z" fill="#065CBE"/>
<path transform="translate(755,473)" d="m0 0 1 2-7 9-15 11-13 9-7 3-12 2-5 1h-11l-14-4-6-2v-1l9 1 6 1h19l14-3 12-5 14-9 10-10z" fill="#065EBE"/>
<path transform="translate(1390,299)" d="m0 0h1v91h-1l-1-24-2-3v-35l2-17z" fill="#065CBE"/>
<path transform="translate(612,441)" d="m0 0 2 1 4 15 7 14 8 10 8 8 13 8 5 2-1 3-12-5-10-7-3-5-7-7-10-14-4-15z" fill="#065EBE"/>
<path transform="translate(859,561)" d="m0 0h29l8 2h11l13 1v1h-78l4-2z" fill="#065CBE"/>
<path transform="translate(1444,1055)" d="m0 0 1 4v27l4 12 3 6-1 2-5-5-2-3-3-16v-18z" fill="#0867C1"/>
<path transform="translate(961,560)" d="m0 0 6 2 1 3h-24l4-2z" fill="#065CBE"/>
<path transform="translate(1364,240)" d="m0 0 4 2 11 11 7 11-1 4-9-15-10-10-2-1z" fill="#065FBE"/>
<path transform="translate(515,1111)" d="m0 0 7 5 15 6 4 3-8-1-12-6-6-4z" fill="#065FBE"/>
<path transform="translate(1097,686)" d="m0 0 5 2 8 10 2 3-1 4-6-9-6-5z" fill="#065FBE"/>
<path transform="translate(1466,1126)" d="m0 0 10 2 7 3v1h-7l-9-4z" fill="#065EBE"/>
<path transform="translate(1257,692)" d="m0 0 5 1v8l-4 3-1-4z" fill="#065CBE"/>
<path transform="translate(506,677)" d="m0 0h2v19l-2 2-1-19z" fill="#065CBE"/>
<path transform="translate(1043,672)" d="m0 0h16l3 2-22 1z" fill="#065DBE"/>
<path transform="translate(1483,1098)" d="m0 0h1v11l-5-1 2-6z" fill="#0867C1"/>
<path transform="translate(986,600)" d="m0 0h2l-2 4-5 6h-2l1-5z" fill="#065EBE"/>
<path transform="translate(1521,1055)" d="m0 0h1v12l-4 6h-2l2-4 2-5z" fill="#0867C1"/>
<path transform="translate(1517,1097)" d="m0 0 2 2-1 6-3 1-2-2z" fill="#0766C0"/>
</svg>
