<?xml version="1.0" standalone="no"?>
<!DOCTYPE svg PUBLIC "-//W3C//DTD SVG 20010904//EN"
 "http://www.w3.org/TR/2001/REC-SVG-20010904/DTD/svg10.dtd">
<svg version="1.0" xmlns="http://www.w3.org/2000/svg"
 width="300.000000pt" height="218.000000pt" viewBox="0 0 300.000000 218.000000"
 preserveAspectRatio="xMidYMid meet">
<metadata>
Created by potrace 1.10, written by Peter Selinger 2001-2011
</metadata>
<g transform="translate(0.000000,218.000000) scale(0.100000,-0.100000)"
fill="#000000" stroke="none">
<path d="M1965 1773 c-430 -541 -529 -663 -536 -656 -15 16 -332 419 -343 436
-6 9 -13 17 -16 17 -3 0 -5 -216 -5 -480 0 -264 3 -479 7 -477 4 1 43 49 88
105 l82 104 -4 134 c-1 74 -2 134 -2 134 1 0 25 -32 55 -70 29 -39 56 -67 60
-63 8 9 640 804 732 921 7 8 7 16 0 23 -6 6 -48 -39 -118 -128z m-740 -460
c50 -63 95 -120 100 -127 80 -94 83 -107 38 -148 -18 -17 -21 -16 -58 22 -76
78 -105 46 -105 -116 0 -111 0 -113 -32 -155 -18 -23 -39 -44 -45 -47 -10 -3
-13 71 -13 347 0 277 3 349 13 345 6 -3 53 -58 102 -121z"/>
<path d="M1860 1487 c-36 -45 -260 -327 -499 -627 -239 -300 -439 -551 -444
-558 -7 -8 -7 -16 -1 -22 7 -7 96 97 249 290 131 165 241 300 244 300 3 0 24
-25 45 -55 22 -30 42 -55 45 -54 8 0 244 303 249 318 13 40 17 -18 14 -234
l-3 -245 85 0 86 0 2 485 c2 267 1 485 -2 485 -3 0 -34 -37 -70 -83z m30 -443
l0 -405 -42 3 -43 3 -5 210 c-3 116 -9 218 -14 228 -4 9 -18 17 -31 17 -25 0
-65 -41 -175 -180 -14 -17 -37 -46 -53 -63 l-27 -32 -31 33 c-30 33 -30 34
-12 61 10 16 35 48 55 72 21 24 68 82 105 129 37 47 74 93 83 103 36 44 46 57
65 83 31 44 115 144 120 144 3 0 5 -183 5 -406z"/>
</g>
</svg>
