<?xml version="1.0" encoding="UTF-8" standalone="no" ?>
<!DOCTYPE svg PUBLIC "-//W3C//DTD SVG 1.1//EN" "http://www.w3.org/Graphics/SVG/1.1/DTD/svg11.dtd">
<svg xmlns="http://www.w3.org/2000/svg" xmlns:xlink="http://www.w3.org/1999/xlink" version="1.1" width="1080" height="1080" viewBox="0 0 1080 1080" xml:space="preserve">
<desc>Created with Fabric.js 5.2.4</desc>
<defs>
</defs>
<g transform="matrix(1 0 0 1 540 540)" id="3b32e080-403d-4d50-97a4-7d0d8c285ac5"  >
<rect style="stroke: none; stroke-width: 1; stroke-dasharray: none; stroke-linecap: butt; stroke-dashoffset: 0; stroke-linejoin: miter; stroke-miterlimit: 4; fill: rgb(255,255,255); fill-rule: nonzero; opacity: 1; visibility: hidden;" vector-effect="non-scaling-stroke"  x="-540" y="-540" rx="0" ry="0" width="1080" height="1080" />
</g>
<g transform="matrix(1 0 0 1 540 540)" id="78f1b424-51ba-48f2-97ba-34b4780c320b"  >
</g>
<g transform="matrix(2.47 0 0 2.47 508.24 540)"  >
<g style="opacity: 0.87;" vector-effect="non-scaling-stroke"   >
		<g transform="matrix(0.13 0 0 -0.13 10.23 -22.22)"  >
<path style="stroke: none; stroke-width: 1; stroke-dasharray: none; stroke-linecap: butt; stroke-dashoffset: 0; stroke-linejoin: miter; stroke-miterlimit: 4; fill: rgb(15,228,223); fill-rule: nonzero; opacity: 1;" vector-effect="non-scaling-stroke"  transform=" translate(-1576.63, -1257.26)" d="M 1965 1773 C 1535 1232 1436 1110 1429 1117 C 1414 1133 1097 1536 1086 1553 C 1080 1562 1073 1570 1070 1570 C 1067 1570 1065 1354 1065 1090 C 1065 826 1068 611 1072 613 C 1076 614 1115 662 1160 718 L 1242 822 L 1238 956 C 1237 1030 1236 1090 1236 1090 C 1237 1090 1261 1058 1291 1020 C 1320 981 1347 953 1351 957 C 1359 966 1991 1761 2083 1878 C 2090 1886 2090 1894 2083 1901 C 2077 1907 2035 1862 1965 1773 z M 1225 1313 C 1275 1250 1320 1193 1325 1186 C 1405 1092 1408 1079 1363 1038 C 1345 1021 1342 1022 1305 1060 C 1229 1138 1200 1106 1200 944 C 1200 833 1200 831 1168 789 C 1150 766 1129 745 1123 742 C 1113 739 1110 813 1110 1089 C 1110 1366 1113 1438 1123 1434 C 1129 1431 1176 1376 1225 1313 z" stroke-linecap="round" />
</g>
		<g transform="matrix(0.13 0 0 -0.13 -10.35 22.1)"  >
<path style="stroke: none; stroke-width: 1; stroke-dasharray: none; stroke-linecap: butt; stroke-dashoffset: 0; stroke-linejoin: miter; stroke-miterlimit: 4; fill: rgb(15,228,223); fill-rule: nonzero; opacity: 1;" vector-effect="non-scaling-stroke"  transform=" translate(-1422.33, -924.83)" d="M 1860 1487 C 1824 1442 1600 1160 1361 860 C 1122 560 922 309 917 302 C 910 294 910 286 916 280 C 923 273 1012 377 1165 570 C 1296 735 1406 870 1409 870 C 1412 870 1433 845 1454 815 C 1476 785 1496 760 1499 761 C 1507 761 1743 1064 1748 1079 C 1761 1119 1765 1061 1762 845 L 1759 600 L 1844 600 L 1930 600 L 1932 1085 C 1934 1352 1933 1570 1930 1570 C 1927 1570 1896 1533 1860 1487 z M 1890 1044 L 1890 639 L 1848 642 L 1805 645 L 1800 855 C 1797 971 1791 1073 1786 1083 C 1782 1092 1768 1100 1755 1100 C 1730 1100 1690 1059 1580 920 C 1566 903 1543 874 1527 857 L 1500 825 L 1469 858 C 1439 891 1439 892 1457 919 C 1467 935 1492 967 1512 991 C 1533 1015 1580 1073 1617 1120 C 1654 1167 1691 1213 1700 1223 C 1736 1267 1746 1280 1765 1306 C 1796 1350 1880 1450 1885 1450 C 1888 1450 1890 1267 1890 1044 z" stroke-linecap="round" />
</g>
</g>
</g>
</svg>