<?xml version="1.0" encoding="UTF-8"?>
<svg version="1.1" viewBox="0 0 1152 2048" width="1280" height="1280" xmlns="http://www.w3.org/2000/svg">
<path transform="translate(663,734)" d="m0 0h5l2 5 6-3 9-1 4 1 4-1h10l6 3 6 4 6 2 3 7 6 5 5 2 6 5 4 6 5 12 3 5v11l1 13-9 23-7 14-6 15-8 16-2 3v5l5 4 4 11 10 3 35 10 19 9 9 7 11 11 14 19 9 16 4 13 1 7v16l-4 38v16l1 6v27l-1 24-2 11-3 33-6 36-11 40-7 28-5 29-1 10-1 81-2 27v25l1 30 1 8v29l2 31 2 8 6 21 10 50 4 33 1 28v115l-5 42v40l-5 5-6 3 3 15 4 13 1 7v29l-4 6-5 4-16 8-8 5-14 14-12 6-15 5-24 4-19-1-11-2-10-5-11-11-3-5v-9l6-12 7-6 14-10 8-7 9-7 8-8 4-8 9-12 8-13 4-8 1-1v-28l2-10 3-7 1-5-1-35 2-19-1-13-5-29-1-13-1-41-3-20-2-16-7-16-6-29-4-11-6-28-6-29-13-42-11-33-5-18-3-3-1 10-7 36-3 34-4 49-2 9 1 25 2 15 6 61 3 58 3 25 4 34 4 15 3 22v16l-2 7v5l4 6 4 14 5 36v8l-3 7-6 4-13 3-29 4-18 3-19 8-20 6-26 4-10 1h-21l-12-2-3-2-5-12-1-7 4-13 4-3 13-4 23-11 15-6 10-8 6-12 9-12 9-11 2-6 9 1v-28l-5-21-3-17-4-20-2-29-3-17-9-45-6-41-3-31-4-23-5-26-4-30-4-50-5-43-6-45-5-18-3-1-15 7h-6l-11-9-8-10-1-3v-25l4-32 6-35 3-27 3-30 8-43 3-19 2-10 2-18 5-16 2-6 5-27 2-18 5-23 3-21 5-21 6-12 9-10 13-12 13-6 16-5 11-7 12-14 4-5 2-12v-12l-4-5-8-6-3-6-5-24v-12l2-6-1-8-2-4-1-19-2-11-1-3 3-1v-2l-6 2 1-8 5-5 7-3h3v-6l3-5 6-3 10 1 4 2-1-4 3-12zm35 3m2 0v2l5 1-3-3zm-2 3m7 0m-148 493-9 24-9 27-2 11 1 8 2 2 5-15 12-46 1-11z" fill="#0D0C0C"/>
<path transform="translate(663,734)" d="m0 0h5l2 5 6-3 9-1 4 1 4-1h10l6 3 6 4 6 2 3 7 6 5 5 2 6 5 4 6 5 12 3 5v11l1 13-9 23-7 14-6 15-8 16-2 3v5l5 4 4 11 10 3 35 10 19 9 9 7 11 11 14 19 9 16 4 13 1 7v16l-4 38v16l1 6v27l-1 24-2 11-3 33-6 36-11 40-7 28-5 29-1 10-1 55-5-3-2 8-3 3-5-2-1-1-3 6h-6l-2-2-1-6-5 8-4-1-5-5 2-8 5-13 1-5-4 4-8 11-2 4-4 2-3-7 1-3 1-4 3-2v2h2l-2-3 1-6 2-7 2-14 2-10-1-9 4-6 4-2 2-5 3-10 2-7h2l1-6 3-7 5-27 2-8 4-18 2-11 1-4v-7l4-13v-19l-2-4-3 8-2 9-3 14-3 16-2 18-2 9h-2l-3 5-25-2h-46l-15 3-21 2-25 1-13 1-5-1v2l-7 1-3-1v-2l-10-4 1-16 1-11h-2l-1-2-2 1v-2h-2v-3l-11 5-13 4-7 2 6-14 2-13 3-9 1-25-9-3-10-4-13-5h-16l2-22 5-16 2-6 5-27 2-18 5-23 3-21 5-21 6-12 9-10 13-12 13-6 16-5 11-7 12-14 4-5 2-12v-12l-4-5-8-6-3-6-5-24v-12l2-6-1-8-2-4-1-19-2-11-1-3 3-1v-2l-6 2 1-8 5-5 7-3h3v-6l3-5 6-3 10 1 4 2-1-4 3-12zm35 3m2 0v2l5 1-3-3z" fill="#E3D9D6"/>
<path transform="translate(663,734)" d="m0 0h5l2 5 6-3 9-1 4 1 4-1h10l6 3 6 4 6 2 3 7 6 5 5 2 6 5 4 6 5 12 3 5v11l1 13-9 23-7 14-6 15-8 16-3 5-2 4-5-8 2-17 2-3 2-9-6 4-6 2-1-3 2-9 1-2h2l5 5h6l8-6 5-8v-4l-3 7h-1l-1-10-3-3h-2l-1 2-5-1-2-3-1-2h-2l1 5h-3v-3l-3 8h-2l-3-8-1-14-3-6-13-11-4-5h2l1-3-7-1v-3l-17 5-4 3h-2l1 2h13l11 3 1 2-3 1 1 5 4 5-1 3-7-1 2 2-10 3h-7l-5-3-4-4h-5l-5 2-2 5-3 2 2 6h2l1-1 8 1 3 4v2h-9l3 2v2l-3 1 10 4 1 1h8v-2l3 1v6h-3l-10-2h-7l4 4 1 4-5 3h-2l1 3 2 1 1 3 7 3h8l10 3 11 1 5 3-3 5-4 1-7 4-4 2-1 6 4 9 3 13 2 2-1 3-2 19-12 17h-3l-16-12-4-6v-3h-2v-2l-5-1v6l3 5 9 3 10 8-4 2 5 4 2 1-2 9-4 14-4 1-4-1-9 2-3 5-4 2 2-5-5-1-2-5-11 1-5 5-7 8-2 3-2 14 5-7 2-3v7l4-2 7-9 3-1v-2l2 1-4 10-8 10-5 13v16l2 1v-5l3-2 3 7 4 1 1-11 3 1v2l2-1v-4l6-5 1-8 2-1v7l8-6 5-5 3-7 1-8 2-1 2 1 2-4 2 1-1 4 6 1 1-5 8-14 3-6 5-1h2l5-7 4-7h2l1-4 8-12 2-4-7-1v-2l-8 4 2-21-4-4 9-1 8 8 5 6 8 5-6 10-2 1-2 5-9 15-2 4h-2l-1 10-3 8h4l8-18 5-11 6-13h2l1-5 10-15 7-8h2l-1 8v48l-1 10h-11l1-14 1-9-6 19-2 6 3-1h7l-1 10-1 2 2 1-4 6 3 1 1 13-7-3v-4h-2l-1-5-5-1-1-3-10-2-3-5h6l-7-1-5 12 2 7 3 4v2h7l8 2-2 5-1 2h-2l4 3 2 8h-2l-1 3h-2l1 3-2 2-1-1-1 5h2v7l5 2v-6l1-2h2v9l2 3 2-1v2l2 1 2 3 5 5 4 5 6 9 5 2 1 4-6 1h-2l2 6-1 6-3 1v-10l-7-1-1 3v-3l-3-1v-2l-6-2-5-3-1 4-5-7-3-2v-2l-4-2 1-3-2-2h-3l-4-3-1 3-5-2-3-7-5-7-4-8-3-2 3 32 1 4v7l1 4v25h2l3 20 2 18 1 4h-1v10l3 8 8 5v13l14 6v3h-32l-21-8-8-3v-8l1-1v-14l2-23 1-6 8 5-5-5-2-1v-4l-12-1-3 1-4 29-1 15-1 4-2 32h2l1-2 1 3h7l1 4 2-5h3l1-3 3-1 1 4 6 2 15 2 1 2-6 2-8 1 22-1 3 1h7l3-1v3l2-2 4-1-3-2 12 1v3 1l-15 3-21 2-25 1-13 1-5-1v2l-7 1-3-1v-2l-10-4 1-16 1-11h-2l-1-2-2 1v-2h-2v-3l-11 5-13 4-7 2 6-14 2-13 3-9 1-25-9-3-10-4-13-5h-16l2-22 5-16 2-6 5-27 2-18 5-23 3-21 5-21 6-12 9-10 13-12 13-6 16-5 11-7 12-14 4-5 2-12v-12l-4-5-8-6-3-6-5-24v-12l2-6-1-8-2-4-1-19-2-11-1-3 3-1v-2l-6 2 1-8 5-5 7-3h3v-6l3-5 6-3 10 1 4 2-1-4 3-12zm35 3m2 0v2l5 1-3-3z" fill="#8092C6"/>
<path transform="translate(541,1131)" d="m0 0h9l18 7 10 4 4 2v25l-4 12-1 10-6 13 13-4 15-6h2v3h4l3 1h-2v2h2v19l-2 8 5 1 5 3v2h10v-2l18-1h25l-2 2-12 2-18 2-7 2h-5l-2-3-17 5-7 2-5 15-2-3-4 10-12 37-6 16-3 10-3 8-7 20-4 7h-4l-1 2-9 3-8 4h-6l-11-9-8-10-1-3v-25l4-32 6-35 3-27 3-30 8-43 3-19 2-6zm16 102-9 24-9 27-2 11 1 8 2 2 5-15 12-46 1-11z" fill="#643C3C"/>
<path transform="translate(767,1344)" d="m0 0h2l-1 8-6 16 1 5 4 2 4-1 4-8h1l1 8 1 1h6l3-7 4 4h4l3-10 4 2 1 1v26l-2 27v25l1 30 1 8v29l2 31 2 8 6 21 10 50 4 33 1 28v115l-5 42-2-4-4-10-1-5-3-1-4-6v-13l2-42-1-6-1 11h-1l-1-70-3-27-3-3 1-2 1 1 1-2-5-1-1-4h5v-6l-11-3-11-4-14-9-14-7v-1h14l9 2 5 2v2h4l3 3 13 8h1l-1-9-16-9-25-11-7-2-15-8-1-3 20-2 4-1v-2h16l19 3-2-7-7-2-8-3-4-4v-2h-2l-1-3 3-1v-2h2v2l12 2 3 3-2-5v-3h-2v-2l-6-2-4-3-3-12-2-6 3-2 10 2 2-2v-16l-1-12v15h-2l-3-5 1-6-3-3-2-5-1-10-3-8-1-4-2-6-3-10-3-4-2-14-1-10-2-4 1-4-2-9-3-7 1-4h3l1-3 4 5v3l3-1 5 4 1 2h2l1-7-1-4-3-2-7-14-3-8-2-5 1-5 1-3-8 1-6-2v-2l-5-1 2-1 2 1 2-4 5-7h2l2-6 3-5 5-10z" fill="#413630"/>
<path transform="translate(663,734)" d="m0 0h5l2 5 6-3 9-1 4 1 4-1h10l6 3 6 4 6 2 3 7 6 5 5 2 6 5 4 6 5 12 3 5v11l1 13-9 23-7 14-6 15-8 16-3 5-2 4-5-8 2-17 2-3 2-9-6 4-6 2-1-3 2-9 1-2h2l5 5h6l8-6 5-8v-4l-3 7h-1l-1-10-3-3h-2l-1 2-5-1-2-3-1-2h-2l1 5h-3v-3l-3 8h-2l-3-8-1-14-3-6-13-11-4-5h2l1-3-7-1v-3l-17 5-4 3h-2l1 2h13l11 3 1 2-3 1 1 5 4 5-1 3-7-1 2 2-10 3h-7l-5-3-4-4h-5l-5 2-2 5-3 2 2 6h2l1-1 8 1 3 4v2h-9l3 2v2l-3 1 10 4 1 1h8v-2l3 1v6h-3l-10-2h-7l4 4 1 4-5 3h-2l1 3 2 1 1 3 7 3h8l10 3 11 1 5 3-3 5-4 1-7 4-4 2-1 6 4 9 3 13 2 2-1 3-2 19-12 17h-3l-16-12-4-6-3-9 1-5 7-8 2-12v-12l-4-5-8-6-3-6-5-24v-12l2-6-1-8-2-4-1-19-2-11-1-3 3-1v-2l-6 2 1-8 5-5 7-3h3v-6l3-5 6-3 10 1 4 2-1-4 3-12zm35 3m2 0v2l5 1-3-3z" fill="#0F0E0E"/>
<path transform="translate(802,1116)" d="m0 0h9l20 4 7 4-2 22-3 29-5 28-11 40-7 28-5 29-1 10-1 55-5-3-2 8-3 3-5-2-1-1-3 6h-6l-2-2-1-6-5 8-4-1-5-5 2-8 5-13 1-5-4 4-8 11-2 4-4 2-3-7 1-3 1-4 3-2v2h2l-2-3 1-6 2-7 2-14 2-10-1-9 4-6 4-2 2-5 3-10 2-7h2l1-6 3-7 5-27 2-8 4-18 2-11 1-4v-7l4-13v-19l-2-4-3 8-2 9-3 14-3 16-2 18-2 9h-2l-2 3v-10l1-9 1-26 2-10 1-15 2-10-2-12v-7l10-8z" fill="#DE956E"/>
<path transform="translate(771,934)" d="m0 0v3l-4 6 7-6h2l-2 4-6 9-3 9-5 20 1 3 8-10 10-19 3-8 1 4-3 10-5 11v2h6l2 4 2 2h5l8-10-1 5-4 6-8 16-8 18h-2l-3 10-2 5 5-5 4-3h2l2 3 1 7 5 2v2l-8 1v2l10 2 3 2v2h-8l4 3 9 4-3 3-16 4 15-3 9-1-3 8-4 6-1 5 15 3 1 2-13 2 6 2-1 7 13 1 2 2-16 2-9 3 10-1-3 2-5 1 1 3 15 3v2l7 1-3 1h-16v2l9 3v3l-17 3-9 7v7l2 12-2 10-1 15-2 10-1 26-2 20-3 1-23-2 3-12 1-1v-5l-5-6-1-3v-7l5-12 8-15 1-4v-7l2-9-1-7-4-9-4-8-7-22-1-16-2-4v-7l6-12-1-12-2-7v-10l7-15v-7l-5-17v-8l4 3 1 6v-12l-8-7-6-7-5-10-1-3v-11l3 1 7 11 5 8 4 11v3h2l-3-7v-7h-2v-3h3l7-14z" fill="#B0ABB8"/>
<path transform="translate(760,1387)" d="m0 0 3 3 3 11 7 12 1 3 3 2 1 8-2 4-3-1-5-5h-3l-3-6-1-1-1 2h-3l1 8 2 3 2 10-1 4 2 3 1 10 2 14 4 6 3 14 2 1 2 9 2 6v7l3 5h2l-1 8 2 5h2l-1-5v-12l2 2 1 12v20l-2-2-3 1-4-2-6 1 3 9 2 9 9 5v2h2l2 5v3l-3-1v-2l-3 1-9-3v-2h-2v2l-2 2v2h2l5 6 13 3 3 4v2l-7 1 1-2-5-1-9-1-10-2-10 4-5 1 1-7-4-2-12-3-5-4-2-5v-10l3-9 2-1 3-14 1-10 1-2-1-15 1-9-3-16 1-7 1-2-2-9 3-8 3-3 3 1v-2l5-1-1-7 1-2-2-1-2-16-1-6-2-13 4-16 2-5 9-2z" fill="#28231F"/>
<path transform="translate(808,1836)" d="m0 0 2 4 2 9 8 1 2-7h1v35l-5 5-6 3 3 15 4 13 1 7v29l-4 6-5 4-16 8-8 5-14 14-12 6-15 5-24 4h-7l-1-3 2-1-2-2-11-4 4-1-9-4v-2h3l-5-5 4 1 8 5 7 3 5 1h18l16-3 1-2-4-1h-9l-8 1-2-1h-21l-6-2-4-5-4-4 3-4 29-2 26-6h4v-2l8-2h3l2-2-2-6-6-9-4-10v-5l4-4 2-5 1-5h-4l-1 4-3-1 2-7 1-3h-3l2-6h2l4 9v2l1-1-1-4-3-10h2v-3l5-2 5 1 10 9 2 1-1-5 4-3 12-3-2-1 1-13v-6l1 3 4-2-1-1v-16l1-15z" fill="#282320"/>
<path transform="translate(705,1224)" d="m0 0h46l15 1v1h-16l1 2v6l-4 2h-3v9l5 21 5 12-1 2-4-2-3 6-4-1-1 3-7-1-2-1h-8l1 3 4 1 5 3 1 2-4 10-3 2-16 1-3 1 1 1 14 1-3 5-10 9-8 5-2-1-3-7-1-1v-6l5-3-4-8-4-2-5 1-1 3h-1l-1-9-2-6v-4l-5-4 2-6 7-3 11-2v-5l-8 1 2-6-10 2v-2l9-3h-2v-2l-4 1-5-11v-5l-2 1 3 9-1 8-9 3-15 3h-6l-1 2-6 1-5-17-3-6v-4l7-2v3l8-3 16-4 10-3 2-2v-1l18-2z" fill="#282320"/>
<path transform="translate(675,778)" d="m0 0h5v3l4-1 4 2-3 4 7 7 9 7 3 4 1 3 1 14 2 8h2l1-4 2-5 2 3v-4l5 2v3l5 1 1-3 5 2 2 10 3-9h1v8l-7 10-7 5h-6l-5-4v-2h-2l-2 14 9-5 3-1-1 9-2 3-2 18 4 6-2 4-14 10-11 7h-15l-3-14-4-9 2-7 8-4 5-3h2l2-4-4-2-11-1-10-3h-8l-8-4v-3l-3-1v-3l6-3-1-4-4-2 1-1-2-2h9l10 2 2 1v-6l-2-1v2l-2 1h-6l-12-6 4-1-5-5 11 1-3-5-8-1-3 3-3-9 4-2 2-5 5-3 7 1 2 4 5 2h7l8-3-2-2 9 1-2-5-3-3 1-5 2-1-11-3h-13l-1-3 8-5z" fill="#DD936D"/>
<path transform="translate(565,978)" d="m0 0 2 3 5 11 7 8-1 13 7-6 6-3-1 6-8 13-1 2 2-1h6l1 1v10l-1 1v5l2 2 1 8-2 7-4 1-1 30v20l3 1 7 14-4-1-5-9-3 45h-1v-15l-9-3-10-4-13-5h-16l2-22 5-16 2-6 5-27 2-18 5-23 3-21 4-16 3-1z" fill="#8092C6"/>
<path transform="translate(575,1142)" d="m0 0 5 1 2 1v25l-4 12-1 10-6 13 13-4 13-5h3l-1 6-17 48-10 28-12 35-11 33-1 2 2-1 7-20 8-22 4-10 6-18 5-12 11-31 1 4-7 21-4 10-9 26-3 8-6 17-4 10 5 1-3 9-5-2-4 10-5 3-5 1v2l-6 3-1 1 3 3-5 2-5-6-5-12v-2h-2v-11l2 1-1-9 2 1 4 12 2 3h5l3-5 1-7v-13l3-17 12-45 3-13v-3l-8 21-9 27-3 16-2 2-2-5v-14l3-9 5-19 5-13 3-7 5-17 7-16 3-4h2l2-7-2-3 1-6 2-1 3-9h2v-8l1-2 3-1 2-9-1-7z" fill="#0F0D0D"/>
<path transform="translate(629,1867)" d="m0 0h2v3h2l7 8 2 2v6l-1 1h-7l-1 4-4 2h-5v3l5 2v1l7 1v3h-6l-1 3-10 1v2h2v2l3 1-1 7-3 6-4 3-7 3-3 2-9 2-3 5 12-3 4 1-12 4 8-2 10-3-3 4 5 1-4 3-23 7-26 4-10 1h-21l-12-2-3-2-5-12-1-7 4-13 4-3 13-4 23-11 15-6 10-8 3-7 5-2 4-2-1 4-4 4-7 8-6 10 2 5-11 3-5 5h-2l-1 3-11 3-1 1 11-1 15-4 15-7 4-1 2-4 6-3h3l1-3 6-5h3v3l3-1-1-4 6-2h4l-1-5h-5l-1 3-3 1-2 4 1-9 6-9 7-7v-2z" fill="#0F0E0D"/>
<path transform="translate(663,734)" d="m0 0h5l2 5 6-3 9-1 4 1 4-1h10l6 3 6 4 6 2 3 7 6 5 5 2 6 5 4 6 5 12 3 5v11l1 13-9 23-7 14-6 15-8 16-3 5-2 4-5-8 2-17 2-3 2-9-6 4-6 2-1-3 2-9 1-2h2l5 5h6l8-6 5-8v-4l-3 7h-1l-1-10-3-3h-2l-1 2-5-1-2-3-1-2h-2l1 5h-3v-3l-3 8h-2l-3-8-1-14-3-6-13-11-4-5h2l1-3-7-1v-3l-17 5-4 3h-2l1 2h13l11 3 1 2-3 1 1 5 4 5-1 3-7-1 2 2-10 3h-7l-5-3-4-4h-5-3l-4-3v-2l-7-2 3-5 6-9 11-9 8-4 10-1 7 1 1 3 11-1 4 1 1 3-3 5 3 3 3 1v2l4 2v2l4 1v3l9 5h3 2v-3l3 1 4 4 3-1 1 3h5l-2-1 1-2 4-2v-2l-2-1 2-5v-3l1-1-4-1v-2l-4 1v-4l2-2-1-2-4-1 3-2-10-2v-2h3v-4l3-2-5-1-2-1-6 2v-7l1-2-7 1-6-1 2-5h2l-6-6 1-1-11-1v2l-5 2-4 6-2 5-6 1-1-1v-7l-1 1-2 6h-1v-7l-1 8-2 1v-11l-4 6-4-1-7-3 4-1 4 2-1-4 3-12zm35 3m2 0v2l5 1-3-3z" fill="#2A2421"/>
<path transform="translate(731,912)" d="m0 0h2l-1 8v48l-1 10h-11l1-14 1-9-6 19-2 6 3-1h7l-1 10-1 2 2 1-4 6 3 1 1 13-7-3v-4h-2l-1-5-5-1-1-3-10-2-3-5h6l-7-1-5 12 2 7 3 4v2h7l8 2-2 5-1 2h-2l4 3 2 8h-2l-1 3h-2l1 3-2 2-1-1-1 5h2v7l5 2v-6l1-2h2v9l2 3 2-1v2l2 1 2 3 5 5 4 5 6 9 5 2 1 4-6 1h-2l2 6-1 6-3 1v-10l-7-1-1 3v-3l-3-1v-2l-6-2-5-3-1 4-5-7-3-2v-2l-4-2 1-3-2-2h-3l-4-3-1 3-5-2-3-7-5-7-4-8-3-2v9h-1v-14l1 2h2v-8l2 1v2l3 1v-5l-4-3 2-1 4 1-2-4 3-2h-2l2-12 3-4 2-2h3l1-15 3-3h-7l2-7 7-13 1 3-3 12-1 1h4l8-18 5-11 6-13h2l1-5 10-15z" fill="#B7B5C7"/>
<path transform="translate(561,1137)" d="m0 0 7 1 9 3v2l4 4-1 12-2 3h-3v7l-1 3h-2l-2 9-3 1v6l2 4-3 6-4 4-7 16-6 19-6 16-3 10-5 19-1 2v13l2 3h2l2 3 1 3-1 8v18l-3 6-2 2h-5l-4-6-3-9 1 9-2-2-1 10h2l6 14v2l3 1 2 2 3-2-4-3 9-3v-2l9-4 5-12 5 4 1-6 2-3-5-1 2-7 9-27 4-9 9-27 4-10 4-13-14 39-4 10-6 18-4 10-11 29-2 5h-2l3-10 13-40 9-27 4-10 7-20 12-34 3-8v-4h2v3h4l3 1h-2v2h2v19l-2 8 5 1 5 3v2h10v-2l18-1h25l-2 2-12 2-18 2-7 2h-5l-2-3-17 5-7 2-5 15-2-3-4 10-12 37-6 16-3 10-3 8-7 20-4 7h-4l-1 2-9 3-8 4h-6l-11-9-8-10v-11l2-1 2 3 4 1 3 5 2-1v-3l-2-1-1-8 1-4 1-7h2v-10l4 2 2 3v4l4-3 6-1-1-9-1-6h-2l-4-9v-2h-2l-2-4 3-6 3-5v-13l2-4-2-1 4-3v-6l1-2h2l-1-3 3-7h2v-6l2-2 3-12 2-2 5-18 2-15 5-4h2l1-14 1-2h2v-9l-1-3h-2l-1-7-3-4 2-1z" fill="#3C2D2B"/>
<path transform="translate(771,1635)" d="m0 0 5 2 9 5 16 5 3 3v5l-6-1 2 4 4 1-1 3 2 2 3 28 1 59 1-43h1l1 54-2 37v13l4 6 3 3 4 12 1 1v15l-2 2-6-1-4-4-2-8h-1v-23l-2 35v7l-1 4h-2v-2h-2v-2h-2l-6-10-8-6-11-6-3-3 1-5 13-2 10-1 8 5 2-9v-8l-11-4v-5l3-5-1-6-8-8v-3h-2l-1-6 2-1h8l7 1-2-4v-4l5-1 3 1v-5l-6-2-5-4 1-4 1-6-11-9-6-5-3-5 1-5 5-4h2l-1-15 2-3-1-5-1-7 1-4-5-4v-2l-5-2-4-4v-2h-2l-3-6v-3l5 2 11 6 6 1-2-6-3-3-5-3-2-4 1-11-2-4-4-2z" fill="#241F18"/>
<path transform="translate(801,1611)" d="m0 0 5 2 14 7h3l4 33 1 28v115l-5 42-2-4-4-10-1-5-3-1-4-6v-13l2-42-1-6-1 11h-1l-1-70-3-27-3-3 1-2 1 1 1-2-5-1-1-4h5v-6l-11-3-11-4-14-9-14-7v-1h14l9 2 5 2v2h4l3 3 13 8h1l-1-11-4-3 5-2z" fill="#433732"/>
<path transform="translate(641,807)" d="m0 0 2 1-5 5 2 6h2l1-1 8 1 3 4v2h-9l3 2v2l-3 1 10 4 1 1h8v-2l3 1v6h-3l-10-2h-7l4 4 1 4-5 3h-2l1 3 2 1 1 3 7 3h8l10 3 11 1 5 3-3 5-4 1-7 4-4 2-1 6 4 9 3 13 2 2-1 3-2 19-12 17h-3l-16-12-4-6-3-9 1-5 7-8 2-12v-12l-4-5-8-6-3-6-5-24v-12l5-15z" fill="#643C3C"/>
<path transform="translate(667,1053)" d="m0 0h1l2 22 1 4v7l1 4v25h2l3 20 2 18 1 4h-1v10l3 8 8 5v13l14 6v3h-32l-21-8-8-3v-8l1-1v-14l2-23 1-6 8 5-1-4 2-9v-14l2-33 2-12 5-6h2z" fill="#969DC5"/>
<path transform="translate(788,1523)" d="m0 0 4 4 9 17 5 3 5 15 9 42 2 11v6l-6-2-12-6-3-2 2 10v6h-3l-1 1 3 2-1 2-16-9-25-11-7-2-15-8-1-3 20-2 4-1v-2h16l19 3-2-7-7-2-8-3-4-4v-2h-2l-1-3 3-1v-2h2v2l12 2 3 3-2-5v-3h-2v-2l-6-2-4-3-3-12-2-6 3-2 10 2 2-2z" fill="#3F342F"/>
<path transform="translate(802,1116)" d="m0 0h9l12 2v1l-10 1-1 1-1 21-1 8 1 4h-2v4h-2l2 10v5l-2 2 1 7h-3l1 7-1 3 1 3-2 2-1 6-1 5-3 3v5l-2 4-2 9-3 5-2 9-4 14-4 25-2 7-10 10-3 5h-3l3 12h-2v2h-2v11l-1 6 4 1 1 1v5l5 1-2 10-1 6 2 3-1 8-2 5 2 1-4-1-5-5 2-8 5-13 1-5-4 4-8 11-2 4-4 2-3-7 1-3 1-4 3-2v2h2l-2-3 1-6 2-7 2-14 2-10-1-9 4-6 4-2 2-5 3-10 2-7h2l1-6 3-7 5-27 2-8 4-18 2-11 1-4v-7l4-13v-19l-2-4-3 8-2 9-3 14-3 16-2 18-2 9h-2l-2 3v-10l1-9 1-26 2-10 1-15 2-10-2-12v-7l10-8z" fill="#BB7457"/>
<path transform="translate(705,1224)" d="m0 0h46l15 1v1h-16l1 2v6l-4 2h-3v9l5 21 2 8-3-3-4-11-2-8-17 2 2-3v-2l-22 5-12 2-3 1v-2l-4 1-5-11v-5l-2 1 3 9-1 8-9 3-15 3h-6l-1 2-6 1-5-17-3-6v-4l7-2v3l8-3 16-4 10-3 2-2v-1l18-2z" fill="#633D3C"/>
<path transform="translate(749,1424)" d="m0 0 2 1 4 12 1 16 3 9 2 9-1 10-8 6-3-3-2-5-3-1-1 8 1 3 1 15 3 10 4 3v2h2l1 5-2 4 6 4 2 3v7l5 5 1 7-1 4-3 1v8h-2l-1 4 4 7 1 2 11 5v2h6l10 4 4 1v2l-7 1 1-2-5-1-9-1-10-2-10 4-5 1 1-7-4-2-12-3-5-4-2-5v-10l3-9 2-1 3-14 1-10 1-2-1-15 1-9-3-16 1-7 1-2-2-9 3-8 3-3 3 1v-2l5-1-1-7 1-2-2-1-2-16 2-3z" fill="#231E18"/>
<path transform="translate(759,1658)" d="m0 0h6l4 3h-2l3 9h2l4 5 5 3v2l4 2 2 3-1 8 2 3-1 5-1 7 1 6-1 4-6 4-1 5 5 7 13 10 2 2-1 6-1 4 8 5 2 1v5h-8l3 9-16-1h-2l1 6h2l3 5 5 5 2 3-1 5-3 9 11 3 1 1v8l-2 10-8-4-3-1-18 2-3 1v6l5 2 9 5 9 7 4 7v2h2v2h2l-1 2-4-2-6-10-11-8-9-5-4-4 1-7 6-12 1-4-3-11 1-1-2-1-1 4-4-6-2-6h-2l-1-5h4l8 8 11 1 3 1-1-6-1-4-4-3-2-9 4-11 2-7 2-4-1-5-8-4-2-10-3-8v-6l-6-9-2-5 4-3h5v-7l-1-7 1-7-1-3-3-1-3-4v-2l-3-1-5-5z" fill="#181510"/>
<path transform="translate(565,978)" d="m0 0 2 3 5 11 7 8-1 13 7-6 6-3-1 6-8 13-1 2 2-1h6l1 1v10l-1 1v5l2 2 1 8-2 7-4 1-1 30v20l3 1 7 14-4-1-5-9-3 45h-1v-15l-9-3-10-4-13-5v-1l11 1 7 1-12-5v-1h7l-6-3v-1l12-1-1-3h5l-10-4 4-1h12l-9-3-2-3-4-2v-1h8l3-1-15-6-11-1-2-2 6-3 7 1 12 6-2-3 8-1-12-4-1-2h8 3l-6-7-1-3 4-3-1-7h-5l5-6-6-6 2-4 2-2 2 3 3-5-3-17-5-7-4-8-3-3-2-3v-3l4 1 8 8 6 9-5-17-5-13-2-9z" fill="#7180B2"/>
<path transform="translate(683,792)" d="m0 0 4 2v3l-4-2 6 10v2l-6 5-12 5h-3v2h2l1 3 4-1 3 9v3l3-1-1 4-2 3-3-1 1-7h-5l-1 11-8 6-1 6 14 2 1-2h5l6-3v2l3-1 3 1v2l3 1 4 1v2l2 1v4h-2v4h-2l1 10-3 5h2l1 5 1 6-2 7 2 1-8 5h-15l-3-14-4-9 2-7 8-4 5-3h2l2-4-4-2-11-1-10-3h-8l-8-4v-3l-3-1v-3l6-3-1-4-4-2 1-1-2-2h9l10 2 2 1v-6l-2-1v2l-2 1h-6l-12-6 4-1-5-5 11 1-3-5-8-1-3 3-3-9 4-2 2-5 5-3 7 1 2 4 5 2h7l8-3-2-2 9 1-2-5-3-3 1-5z" fill="#BB7457"/>
<path transform="translate(796,1147)" d="m0 0 2 1 1 8v15l-4 13v8l-2 6-2 13-3 13-3 12-4 23-5 13h-2l-2 12-5 10-5 4-2 6 1 7-3 14-2 14-2 5 1 7h-4l-2 8 3 7-5-2-1-3-2 1 4 4v2h-2l-2 5-5 2-4-1-2-4 1-2-8 1-1-1v-6l3-5 3-13 7-14 3-9h2l2-6 2-3h2l2-5 1-2h2l2-5 4-5 2-5h2l3-10 3-12 3-13 2-21h-12l-2-1 2-4 9-1-3-2h7l1-1 1-7 1 4h2l3-27 6-32 4-14z" fill="#633B3B"/>
<path transform="translate(599,1194)" d="m0 0h2v3h4l3 1h-2v2h2v19l-2 8 5 1 5 3v2h10v-2l18-1h25l-2 2-12 2-18 2-7 2h-5l-2-3-17 5-7 2-5 15-2-3-4 10-12 37-6 16-3 10-3 8-7 20-4 7h-4l-1 2-9 3-8 4h-6l-11-9-7-8h3l3 2v2l3 1v2l5 2 4 3 9-1 5-3 1-2h5l1-9 1-2 4-2 5-12 5 4 1-6 2-3-5-1 2-7 9-27 4-9 9-27 4-10 4-13-14 39-4 10-6 18-4 10-11 29-2 5h-2l3-10 13-40 9-27 4-10 7-20 12-34 3-8z" fill="#5F5551"/>
<path transform="translate(663,968)" d="m0 0 1 2-4 12h2v3l-2 1v6l1 3-6-1 1-4-3 1-1 2-3 1-2 10-6 9-6 4-5 3v-7l-1 8-5 5h-2l1 4-3 1-2-2-1 7-1 3-5-1-2-5h-2l-1 5-3-1v-16l5-13 8-10 4-10-1 1-5 4-6 8h-3l-1-4-6 8-1-2 2-13 6-8 9-9 11-1 2 3v3l5 1-2 5 5-4 2-4 12-2 5 1v5h5l1-5z" fill="#B9B6C7"/>
<path transform="translate(769,1889)" d="m0 0 7 1 11 10 2 1v2h2l-1 2-2-1-1 7-2 2-1 7-4 7v11l1 4-5 5h-2l1 6 10-6 3 1-6 5-2 3-3 10-5 3-8 4-8 2-1 3-11 4h-27l-2-1-9-1-3-3-1-5h4v-2h19l4-1 10-2v-2l16-4h4v-2l8-2h3l2-2-2-6-6-9-4-10v-5l4-4 2-5 1-5h-4l-1 4-3-1 2-7 1-3h-3l2-6h2l4 9v2l1-1-1-4-3-10h2v-3z" fill="#735D55"/>
<path transform="translate(668,769)" d="m0 0h9l3 2v2l11-1 4 1 1 3-3 5 3 3 3 1v2l4 2v2l4 1v3l5 3 2 6 3 5-1 5 5-1 1 2h-3l6 2 8 2 3 3v7l-3 7h-1l-1-10-3-3h-2l-1 2-5-1-2-3-1-2h-2l1 5h-3v-3l-3 8h-2l-3-8-1-14-3-6-13-11-4-5h2l1-3-7-1v-3l-17 5-4 3h-2l1 2h13l11 3 1 2-3 1 1 5 4 5-1 3-7-1 2 2-10 3h-7l-5-3-4-4h-5-3l-4-3v-2l-7-2 3-5 6-9 11-9 8-4z" fill="#362A27"/>
<path transform="translate(810,1893)" d="m0 0 4 4 5 17 1 7v29l-4 6-5 4-16 8-8 5-14 14-12 6-15 5-24 4h-7l-1-3 2-1-2-2-11-4 4-1-9-4v-2h3l-5-5 4 1 8 5 7 3 5 1h18l16-3 1-2-4-1h-9l-8 1-2-1h-21l-6-2-4-5-4-4 3-4 29-2 3-1h7l-2 2-12 3-19-1v2h-4l3 6 1 1 9 1 2 1h27l11-3 1 3 6-1 9 1 5-3 5-5 8-15h2l2-4 5-7h2v2h2l1-5 4-7 1-10h2l-1-6 1-2h-2v-4h-3l4-7v-4l-3 4-2-1 5-9z" fill="#433631"/>
<path transform="translate(779,1020)" d="m0 0h2l2 3 1 7 5 2v2l-8 1v2l10 2 3 2v2h-8l4 3 9 4-3 3-16 4 15-3 9-1-3 8-4 6-1 5 15 3 1 2-13 2 6 2-1 7 5 1v1l-14 1-3-2h-13l-2 6-4 3h-3l-1-12-2-2 1-7-2-6-3-6-3-12v-13l6 1 1 1 2-7 2-2h13l1-2-4-2-2-6-2-2z" fill="#BBB7C7"/>
<path transform="translate(683,906)" d="m0 0 7 1 4 3-8 2 4 3-1 15-1 5 5-3h2v2h7l2 2h-2l-2 4-7 11-2 4h-2l-2 4-5 9-4 4-1-2-4 1-7 14-4 7-3 1v-7l3-1v-3h-2l2-10-3 8h-5l-1 3 1-13 5-15-1-3-6-5 4-2-11-8-7-2-4-6 1-6 5 1v2h2l4 8 13 10 5 3 10-14 2-3 2-19 2-4z" fill="#E0D6D4"/>
<path transform="translate(641,807)" d="m0 0 2 1-5 5 2 6h2l1-1 8 1 3 4v2h-9l3 2v2l-3 1 10 4 1 1h8v-2l3 1v6h-3l-10-2h-15v2l6 1 2 1v5l-6 3v6h4v2h2l1 2 9 3 10 1v2h3l-1 5-3 8-2 11-3 1-2 5-5 3-1 8-3 3-1 5 1 11v10l-4-1-4-6-3-9 1-5 7-8 2-12v-12l-4-5-8-6-3-6-5-24v-12l5-15z" fill="#3D2E2C"/>
<path transform="translate(629,1867)" d="m0 0h2v3h2l7 8 2 2v6l-1 1h-7l-1 4-4 2h-5v3l5 2v1l7 1v3h-20l-3 9v15l-7 4-14 1-2 3-8 2h-26l-10-2 1-4 5-2 16-3 7-3h6l3-3 2-1 2-4v-3l4-1 2-4 6-3h3l1-3 6-5h3v3l3-1-1-4 6-2h4l-1-5h-5l-1 3-3 1-2 4 1-9 6-9 7-7v-2z" fill="#625752"/>
<path transform="translate(674,1121)" d="m0 0h1l4 32 1 4h-1v10l3 8 8 5v13l14 6v3h-32l-21-8-8-3v-8l1-1v-14l2-23 1-6 10 6v20l7 3 2 5 6 2v2l-12-2-4-1v-2l-9 1 26 6h2l-2-1 1-3h2l1-3-3-5 2-1v-10l-1-16z" fill="#B7B5C6"/>
<path transform="translate(801,1611)" d="m0 0 5 2 14 7h3l4 33 1 28v40l-2 2v-2h-3l-4-4-1 2-1-6 6-2-1-9-3-9-3-12-1-5-2-2h2l-2-3v24l-2 3-5-53-2-14-2 1-5-5 5-2z" fill="#645853"/>
<path transform="translate(797,1590)" d="m0 0 3 4 3 6 7 6 5 5v2h2v2l4 2 1 4-6-2-12-6-3-2 2 10v6h-3l-1 1 3 2-1 2-16-9-25-11-7-2-15-8-1-3 20-2 4-1v-2h16l19 3z" fill="#413630"/>
<path transform="translate(771,934)" d="m0 0v3l-4 6 7-6h2l-2 4-6 9-3 9-5 20 1 3 8-10 10-19 3-8 1 4-3 10-5 11v2h6l2 4 2 2h5l8-10-1 5-4 6-8 16-8 18-2-3 3-7 8-15-5 2-5 5-2-4-6 3-4 3h-2l-2 9-2 1v-6h-2l-1 4-4-14v-8l4 3 1 6v-12l-8-7-6-7-5-10-1-3v-11l3 1 7 11 5 8 4 11v3h2l-3-7v-7h-2v-3h3l7-14z" fill="#CBC5CB"/>
<path transform="translate(694,987)" d="m0 0 10 1 3 2-4 1-7-1 2 3 10 3 2 3 4 1 1 5h2v4l5 1 1 1 1-5h1l3 10 1 3-1 2-5 1-2-2-7-2v2l12 3-1 4v3l-2 6v4 10l-2 5h2l1 7 3 5-1 4-6-7-2-1v-3l-6-2-1-7 1-5h-2l-1 8-4-1-2 2v-8l1-2h-2v-5l3-2v-2h2l1-4v-1l-2-7-3-3 3-1 3-5-15-2-5-7-1-6z" fill="#CCC6CC"/>
<path transform="translate(669,1043)" d="m0 0 5 2 22 10 1-3 4 2 1-3v5l-1 1 2 1 1-2h3l1 4 2-2 6-1v2l2 1 2 3 5 5 4 5 6 9 5 2 1 4-6 1h-2l2 6-1 6-3 1v-10l-7-1-1 3v-3l-3-1v-2l-6-2-5-3-1 4-5-7-3-2v-2l-4-2 1-3-2-2h-3l-4-3-1 3-5-2-3-7-5-7-4-8z" fill="#B0ABB9"/>
<path transform="translate(690,1227)" d="m0 0h8v2l-10 3h-5l1 8 5 13-1 3h-2l-5-11v-5l-2 1 3 9-1 8-9 3-15 3h-6l-1 2-6 1-5-17-3-6v-4l7-2v3l8-3 16-4 10-3 2-2v-1z" fill="#3C2D2B"/>
<path transform="translate(807,1787)" d="m0 0h1l2 25 4 6 3 3 4 12 1 1v15l-2 2-6-1-4-4-2-8h-1v-23l-2 35v7l-1 4h-2v-2h-2v-2h-2l-6-10-8-6-11-6-3-3 1-5 13-2 10-1 8 5 2-9v-8l-4-1 1-2 4 1 1-10-4-2v-2h3l1-8z" fill="#282320"/>
<path transform="translate(731,912)" d="m0 0h2l-1 8v48l-1 10h-11l1-14 1-9-5 15-4-1-2-2-6 12-4-1 5-7-1-4-3-4 1-5 3-7 5-11h2l1-5 10-15z" fill="#969DC5"/>
<path transform="translate(530,1154)" d="m0 0 2 1v9l-1 10-2 5-1 7h-2l1 3-1 7 2 5-1 8 1 3v15l-2 10v9l1 4v8l-3 4v6l-4 12-2 21-4 9h-2l-3 9-2-3v-9l4-26 5-31 5-50 8-43z" fill="#40302E"/>
<path transform="translate(796,1147)" d="m0 0 2 1 1 8v15l-4 13v8l-2 6-2 13-3 13-3 12-4 23-5 13h-2l-1 7-3 1-1-3v-7l2-5 3-18 1-13h-12l-2-1 2-4 9-1-3-2h7l1-1 1-7 1 4h2l3-27 6-32 4-14z" fill="#643C3C"/>
<path transform="translate(782,1462)" d="m0 0 3 4 6 12 10 10 1-7h1v29l2 36-5-2-10-18-2-3-1-6v15h-2l-3-5 1-4v-12l-2-19v-13h1l1 12v-9l-1-9z" fill="#645853"/>
<path transform="translate(741,1394)" d="m0 0h2v9l-3 9 1 7 2 7-1 5-1 16-4 4-1 17 3 11-1 1-1 9 3 14-1 10 1 14-1 2-2 16-3 9h-2l-1 7-1 2v11l1 4-3-3-1-9 2-16 1-17 2-5h2v-6l-3-3 2-6-3-6 2-8 1-7-2-23-2-9-1-13 3-13 1-2v-8l-2-11 4-15h1v7l-2 7 1 7 2 7 2-1-1-14 2-5v-10z" fill="#181510"/>
<path transform="translate(785,1947)" d="m0 0 3 1-6 5-2 3-3 10-5 3-8 4-8 2-1 3-11 4h-27l-2-1-9-1-3-3-1-5h4v-2h19l4-1 10-2v-2l16-4h4v-2l8-2h3l2-2 1-5 2 3z" fill="#615550"/>
<path transform="translate(781,1387)" d="m0 0 12 3 5 1 4 2-1 25-1 23-4-2-12-12-3-4h-2l-3-9-10-17-1-5 4 1 6 7v2l3 1 1 4z" fill="#635752"/>
<path transform="translate(723,1249)" d="m0 0h4l1 3 1 1 13-2 3 9 2 9-5-1-6-2-4 7-1 2 1 4h-27l-3-2 3-5 8-5 4 1 2-4 2-3-1-1-8 1-10 2-7 3h-4l2-6-10 2v-2l8-2v-2l7-2z" fill="#423731"/>
<path transform="translate(732,1966)" d="m0 0h7l-2 2-12 3-19-1v2h-4l3 6 1 1 9 1 2 1h27l11-3 1 3 6-1 9 1 5-3 3-3 2 1-1 4-7 7-12 6-15 5-24 4h-7l-1-3 2-1-2-2-11-4 4-1-9-4v-2h3l-5-5 4 1 8 5 7 3 5 1h18l16-3 1-2-4-1h-9l-8 1-2-1h-21l-6-2-4-5-4-4 3-4 29-2z" fill="#2A2521"/>
<path transform="translate(779,1020)" d="m0 0h2l2 3 1 7 5 2v2l-8 1v2l10 2 3 2v2h-8l4 3 9 4-3 3-16 4h1 8l-2 5-1 4 5-3 3 1-5 6-5 3h-3l-1-4 4-3-1-2 1-2-6 3-3 2h-3l1-5-2 1-2 10-5-5-4-15v-13l6 1 1 1 2-7 2-2h13l1-2-4-2-2-6-2-2z" fill="#BBB7C7"/>
<path transform="translate(593,1231)" d="m0 0h2l-3 10-1 7 2-1-3 11-14 43-6 16-3 10-3 8-7 20-4 7h-4l-1 2-9 3-8 4h-6l-11-9-7-8h3l3 2v2l3 1v2l5 2 4 3 9-1 5-3 1-2h5l1-9 1-2 4-2 5-12 5 4 1-6 2-3-5-1 2-7 9-27 4-9 9-27 4-10z" fill="#605652"/>
<path transform="translate(790,1543)" d="m0 0h1l3 10 2 3v8l14 1 2 1 9 43 1 9-5-3v-2h-2l-3-5-5-3-6-7-4-10-4-16-3-18z" fill="#635753"/>
<path transform="translate(678,1018)" d="m0 0 3 2v3l6 1 1-2h-2l1-4 2 2v3l4-1 1 2h-2l3 4-4 1 9 2v3h2v11h2v7l5 2v-6l1-2h2v12l-4 3-2-3 1-2h-3l-1 3-4-3h3l-1-2-4-1 1 3-9-3-17-8-5-2v9h-1v-14l1 2h2v-8l2 1v2l3 1v-5l-4-3 2-1 4 1-2-4 3-1z" fill="#B8B5C6"/>
<path transform="translate(636,1132)" d="m0 0 9 1 3 1-2 8-4 45-1 4-9-2-4-3v-23l4-29z" fill="#CBC5CC"/>
<path transform="translate(575,1142)" d="m0 0 5 1 2 1v25l-4 12-1 10-2 5h-3l-7 11-3 2-5 13-3 8-2 7-3 10-2 4v2l3-2-2 9-8 24-3 16-2 2-2-5v-14l3-9 5-19 5-13 3-7 5-17 7-16 3-4h2l2-7-2-3 1-6 2-1 3-9h2v-8l1-2 3-1 2-9-1-7z" fill="#28221F"/>
<path transform="translate(704,1938)" d="m0 0h7l9 3 7 3-1 5h-2l-3 9-4 4-11 3-10-1-9-3-6-5v-2l-3-1 10-7 2 1h3l6-3 6-1-3-4z" fill="#191611"/>
<path transform="translate(663,734)" d="m0 0h5l2 5 6-3 9-1 4 1 4-1h10l6 3 6 4 6 2 2 7h-5v-2l-5 1 2 4-5 2-6-1 2-5h2l-6-6 1-1-11-1v2l-5 2-4 6-2 5-6 1-1-1v-7l-1 1-2 6h-1v-7l-1 8-2 1v-11l-4 6-4-1-7-3 4-1 4 2-1-4 3-12zm35 3m2 0v2l5 1-3-3z" fill="#322C2A"/>
<path transform="translate(624,1207)" d="m0 0h1v7h2l1-2 1 3h7l1 4 2-5h3l1-3 3-1 1 4 6 2 15 2 1 2-6 2-8 1 22-1 3 1h7l3-1v3l2-2 4-1-3-2 12 1v3 1l-15 3-21 2-37 1-1-3 1-2 5-2-11-2-2-4z" fill="#B3AEBB"/>
<path transform="translate(606,1937)" d="m0 0 4 1-12 4 8-2 10-3-3 4 5 1-4 3-23 7-26 4-10 1h-21l-12-2-3-2-3-10 4 1 5 7 10 4h19l2-1v-2l-8-1-3-2 2-1-7-2 1-4 13 2h28l12-3 8-3z" fill="#3D332F"/>
<path transform="translate(767,1344)" d="m0 0h2l-1 8-6 16 1 5 4 2 4-1 4-8h1l1 8 1 1h6l3-7 4 4h4l3-10 4 2 1 1v26l-5-5-10-4-4-1-1-2-2 5-1-3-15 2v-3l-10 2-6-2v-2l-5-1 2-1 2 1 2-4 5-7h2l2-6 3-5 5-10z" fill="#3F2E2C"/>
<path transform="translate(592,1878)" d="m0 0h2l-1 4-4 4-7 8-6 10 2 5-11 3-5 5h-2l-1 3-11 3-14-1-12-2-1-2 13-4 23-11 15-6 10-8 3-7 5-2z" fill="#1B1712"/>
<path transform="translate(616,1903)" d="m0 0h14l-1 3-10 1v2h2v2l3 1-1 7-3 6-4 3-7 3-15 4-11 5-19 1-15-2-12-5v-4l14-3-13-1v-1l20-2 15-4 11-5h5l-3 6-4 3-2 1-7 1-13 4-10 2-3 1-1 3 10 1h26l8-1 2-4 14-1 6-4v-14l3-7z" fill="#191611"/>
<path transform="translate(808,1836)" d="m0 0 2 4 2 9 8 1 2-7h1v35l-5 5-6 3v4h-2l-1 2-1-5h-7l1-12v-6l1 3 4-2-1-1v-16l1-15z" fill="#433833"/>
<path transform="translate(629,1867)" d="m0 0h2v3h2l7 8 2 2v6l-1 1h-7l-1 4-4 2h-5v3l5 2v1l7 1v3h-6v-1h-12l-10 4-10 7-9 5h-2v-4l3-3h2l2-4 6-3h3l1-3 6-5h3v3l3-1-1-4 6-2h4l-1-5h-5l-1 3-3 1-2 4 1-9 6-9 7-7v-2z" fill="#3D2F2B"/>
<path transform="translate(780,1149)" d="m0 0h4l-2 21-3 13-3 7-2 5-2 3-5-1-1-1-5 11-1-4 4-13-3-3-6-2 1-5 9-4-2-2 1-4 7-9 7-10z" fill="#949CC5"/>
<path transform="translate(755,1860)" d="m0 0 20 4 14 2 6 4 3 4 3 1-1-6h3v10l-2 8-3-1-3-6-2-2 2 5 2 4-8-1-15-5-8-2-3-2 1-4-2-6-6-3-2-3z" fill="#241F18"/>
<path transform="translate(810,1778)" d="m0 0 1 3h5l4 2v2h2l3 5 2 1 1 5-5 42-2-4-4-10-1-5-3-1-4-6v-13z" fill="#433731"/>
<path transform="translate(662,789)" d="m0 0h14l7 3-3 2 1 5 4 5-1 3-7-1 2 2-10 3h-7l-5-3-4-4h-5-3l-4-3v-2l-3-1v-2l-2-1 3-3 5 2 10-1 5-3z" fill="#3D2D2B"/>
<path transform="translate(778,1183)" d="m0 0h1v23l-2 20-3 1-23-2 3-12 5-6h2l3-9 2-3 2 2 4 1 2-5 3-9z" fill="#B0ABB8"/>
<path transform="translate(737,826)" d="m0 0h1v8l-2 5 1 11-9 21-7 12-2 4-5-8 2-17 2-3 2-9-6 4-6 2-1-3 2-9 1-2h2l5 5h6l8-6 5-8z" fill="#2D2624"/>
<path transform="translate(751,1324)" d="m0 0 3 1v7l-9 19 2 1-2 3v6 3l3 2v2h-2l-2 5-5 2-4-1-2-4 1-2-8 1-1-1v-6l3-5 3-13 2-2 4 7 6-11 2-8z" fill="#3B2C2A"/>
<path transform="translate(563,982)" d="m0 0h1l4 17 8 22 1 6-5-5-6-8-5-5-3-1 3 6v2l3 1 6 11 3 4 3 17-3 6-4-4-2-5-3-4-3-17-4-8-1-4 3-19 3-11z" fill="#8092C6"/>
<path transform="translate(691,910)" d="m0 0 4 1 7 7 5 6 8 5-6 10-2 1-2 5-9 15-3 4-2-12 7-10 4-7-7-1v-2l-8 4 2-21-4-4zm-2 45 2 1-2 1z" fill="#B1ABB8"/>
<path transform="translate(687,1862)" d="m0 0h2v3h3l3 14 4 30v8l-1-2-3-1v-2l-6-1 1-4 2-1v-5h-2l-1-7-2-1 1-2-6-2-5-4-1-2-14-2-3-3 5 1h10l7-2 2-2-9 1-1-4 10-5z" fill="#2A2520"/>
<path transform="translate(753,1624)" d="m0 0h14l9 2 5 2v2h4l3 3 13 8h1v-9l2-4 2 8 4 39v20h-1l-2-24-2 1-1-7-3-3 1-2 1 1 1-2-5-1-1-4h5v-6l-11-3-11-4-14-9-14-7z" fill="#40342F"/>
<path transform="translate(597,1195)" d="m0 0h3l-1 6-15 42h-2l-1 3-6 3 1-12 4-13v-11l-1-10-2-1 13-4z" fill="#292320"/>
<path transform="translate(771,1635)" d="m0 0 5 2 9 5 16 5 3 3v5l-6-1 2 4 4 1-1 3 2 2 3 28v9l-10-4-2-3 2-17 2-4-4-5-10-7-2-2v-6l16-1-3-3-5-1-12-6-4-1v-2l-4-2z" fill="#282320"/>
<path transform="translate(599,1194)" d="m0 0h2v3h2l-1 7-21 60-8 21-6 18-4 10-11 29-2 5h-2l3-10 13-40 9-27 4-10 7-20 12-34 3-8z" fill="#615754"/>
<path transform="translate(726,929)" d="m0 0 1 3-2 9-1 16-2-2-5 15-4-1-2-2-6 12-4-1 5-7-1-4-3-4 1-5 3-7 5-11h2l1-5 4-1z" fill="#969EC5"/>
<path transform="translate(521,1322)" d="m0 0 2 3 1 9-2-2-1 10h2l6 14v2l3 1 2 2 3-2-4-3 9-3v-2l5-1-2 10-6 2-5 4-9 1-9-6-4-5-6-4v-11l2-1 2 3 4 1 3 5 2-1v-3l-2-1-1-8 1-4 1-7h2z" fill="#3C2D2B"/>
<path transform="translate(746,1071)" d="m0 0 1 2h2l4 9 4 5 4 9v9l3-1-1 4h2v6h2l2 3v9l-2 11h-3l-4-9-4-8-7-22-1-16-2-4z" fill="#B9B6C7"/>
<path transform="translate(663,1638)" d="m0 0h2l1 3v8h2l2 12 2 25 2 43v9l-3 2-1-4-2-31-2-3-2-16-1-19-2-14v-12z" fill="#191713"/>
<path transform="translate(638,918)" d="m0 0 3 4-1 4v-2l-5-1v6l3 5 9 3 10 8-4 2 5 4 2 1v2l-4-1-6-5h-2l2 5h-19l-4 1-1-5v-11l-1-6 5-5z" fill="#7381B4"/>
<path transform="translate(755,911)" d="m0 0h2l-1 4 4-1v11l-4 9-2 8-1 13-5-3-4-5-5-9v-14l4-9 2-2 4 10 1 9 3-7 1-13z" fill="#BAB7C7"/>
<path transform="translate(673,770)" d="m0 0h3l2 4 1 1 8 1 5 7v7l-2 2-6-7h2l1-3-7-1v-3l-17 5-4 3h-2l1 2h13v1l-12 2-5 3-10 1-4-4 5-4 5-5 2-4 11-5z" fill="#663D3C"/>
<path transform="translate(807,1787)" d="m0 0h1l2 25 4 6 3 3 4 12 1 1v15l-2 2-6-1-4-4-2-8h-1v-16l1-15h-2v-7l-4-2v-2h3l1-8z" fill="#27221F"/>
<path transform="translate(761,1330)" d="m0 0h1v5l4 1 1 1v5l5 1-2 10-1 6 2 3-1 8-2 5 2 1-4-1-5-5 2-8 5-13 1-5-4 4-8 11-2 4-4 2-3-7 1-3 1-4 3-2v2h2l-2-3 1-6 3-9h1l-1 8h3z" fill="#BB7458"/>
<path transform="translate(647,1139)" d="m0 0 10 6v20l7 3 2 5 6 2v2l-12-2-4-1v-2l-9 1 3 3-3 1-2 2-1-1v-10l2-23z" fill="#BAB7C7"/>
<path transform="translate(618,1901)" d="m0 0h14l-2 2-14 1-5 5-6 9-2 2 1 4-6-1-2 3-9 4v2l-5 1h-13l2-4 5-5 5-1 3-3 17-10 11-7z" fill="#C8C1C8"/>
<path transform="translate(797,1590)" d="m0 0 3 4v17h-1l-1-13h-2l-1 2h-11l-2-1v2l-10 2-9 3h-11l-2-1 1 3-6-2-8-5v-2l20-2 4-1v-2h16l19 3z" fill="#27221F"/>
<path transform="translate(750,1226)" d="m0 0h19l4 2-1 1-9 1-2 3h15l-1 14-1-4-18 1-11 2v5h-1l-1-10 1-5 7-2z" fill="#282320"/>
<path transform="translate(771,1891)" d="m0 0 6 4 5 4 3 7-1 4-4 1 2 1-6 15-1 5-2-2-1-4v5l-3 4h-2l-1 6-2-1-2-4v-7l6-12 6-14 1-1v-6l-6-1z" fill="#B2ACB8"/>
<path transform="translate(671,1981)" d="m0 0 9 1 6 4 7 1 2-3 4-1 3 3-4-1v2l9 3 3 2h-5l13 5-4 2v2h-11l-11-2-10-5-11-11z" fill="#1E1B18"/>
<path transform="translate(712,749)" d="m0 0h6v2h6l6 5 5 2 6 5 4 6 2 7-11 1-1-3-12-2v-2h3v-4l3-2-5-1-2-1-6 2v-7l1-2-3-1z" fill="#3E3633"/>
<path transform="translate(696,1980)" d="m0 0 4 1 8 5 7 3 5 1h18l20-4 4 1-20 5 15-3h5l-3 2-18 4-18 1h13l17-2v2l-18 4-13 2h-7l-1-3 2-1-2-2-11-4 4-1-9-4v-2h3z" fill="#4C403A"/>
<path transform="translate(641,807)" d="m0 0 2 1-5 5 2 6h2l1-1 8 1 3 4v2h-9l3 2v2l-3 1 10 4v1h-10l-1-2h-8l-4 9-1 5h-1l-1-5v-12l5-15z" fill="#3B2E2C"/>
<path transform="translate(584,1914)" d="m0 0h5l-3 6-4 3-2 1-7 1-13 4-10 2-3 1-1 3 10 1h19l7 1-4 2h-29l-12-5v-4l14-3-13-1v-1l20-2 15-4z" fill="#2A2421"/>
<path transform="translate(636,1132)" d="m0 0 9 1 3 1-2 8-1 11-8-1 1 3 4 1-1 4-4-1h-3v-2h-3l-1 5h-1l1-13 2-15z" fill="#C3BEC8"/>
<path transform="translate(799,1095)" d="m0 0h5l-3 2-5 1 1 3 15 3v2l7 1-3 1-10-1v-1l-6-1h-8l-10 4-1 2-1 5h-2l-1 2-5-4v-2h-2v-6l3-6 5-1 7-2 11-1z" fill="#BCB8C6"/>
<path transform="translate(782,1432)" d="m0 0 2 1 2 7 6 6 7 2 1-5h1l1 34-4-5-8-13-5-7-3-5-1-4v-8z" fill="#645853"/>
<path transform="translate(690,1227)" d="m0 0h8v2l-10 3h-5l1 8 5 13-1 3h-2l-5-11v-5l-2 1 3 9-1 8-4 1-2-12-2-9-15 1-9 2h-5l4-2 19-5 10-3 2-2v-1z" fill="#26201E"/>
<path transform="translate(801,1887)" d="m0 0h7l2 3h2l1 8-2-2-4 7-3 1-1 3h-8l-6-4v-2l-2-1v-5l4-3 12-3z" fill="#241F18"/>
<path transform="translate(675,1190)" d="m0 0 8 1 7 2 14 6v3h-32l-15-6-1-2 12 1h2l1-3z" fill="#B2ADB9"/>
<path transform="translate(755,1860)" d="m0 0 20 4 14 2 6 4 3 4 3 1-1-6h3v10l-4 2v-2l-5-2-15-4-9-3v2l-3-1-1-3-9-3-3-4z" fill="#27221E"/>
<path transform="translate(804,1567)" d="m0 0 5 1h3l3 13 2 8v5l-7-1-5-6-5-9-3-7v-3z" fill="#3E332E"/>
<path transform="translate(608,1208)" d="m0 0h1v7l4 1 3 5 6-1 1-2 2 1 1 2 12 2-3 3h-3v4l2 2-8-1v2l-7 1-3-1v-2l-10-4 1-8z" fill="#7180B3"/>
<path transform="translate(774,1205)" d="m0 0 4 1v9l-1 11-3 1-23-2v-1l11-1-1-7v-5l4-4z" fill="#939BC3"/>
<path transform="translate(561,1137)" d="m0 0 7 1 9 3 2 6-1 8-5 2-3 6h-2v6l-5 2 1-6h2v-9l-1-3h-2l-1-7-3-4 2-1z" fill="#413630"/>
<path transform="translate(553,1345)" d="m0 0 5 1 1 4-6 12h-4l-1 2-9 3-8 4h-6l-11-9-7-8h3l3 2v2l3 1v2l5 2 4 3 9-1 5-3 1-2h5l1-9 1-2 5-3z" fill="#594F4A"/>
<path transform="translate(791,1561)" d="m0 0h1l5 24 1 5-2 4-3-5-13-3-5-5v-2h-2l-1-3 3-1v-2h2v2l12 2 3 3-2-5v-3h-2v-2h-2l-1-4 3-4z" fill="#413530"/>
<path transform="translate(771,934)" d="m0 0v3l-4 6 7-6h2l-2 4-6 9-3 9-5 20h-3l-3-10v-7h-2v-3h3l7-14z" fill="#BBB8C6"/>
<path transform="translate(648,803)" d="m0 0 7 1 2 4 5 2v2l2 1-5 3-3 7-4-1-1-2-8-1-3 3-3-9 4-2 2-5z" fill="#DC926C"/>
<path transform="translate(666,1237)" d="m0 0h7l2 4 3 17-1 2h-6l-3-6-6-4-2-4-3-1-1-6z" fill="#623B3B"/>
<path transform="translate(798,1362)" d="m0 0 4 2 1 1v26l-5-5-10-4-4-1v-4l-3 1-3-2 6-1 3-7 4 4h4z" fill="#665753"/>
<path transform="translate(678,1018)" d="m0 0 3 2v3l6 1 1-2h-2l1-4 2 2v3l4-1 1 2h-2l3 4-4 1 9 2v3h2l-1 9-4 2v-2h-2v-3l-3 1-4-1 1 3h-2l-3-4v-3-1l-5-10z" fill="#CBC5CB"/>
<path transform="translate(563,982)" d="m0 0h1l4 17 8 22 1 6-5-5-6-8-5-5-3-1-1 3v-7l5-21z" fill="#8092C6"/>
<path transform="translate(807,1807)" d="m0 0h1v15l-1 31v16l3 1-7 2v-4l-2 1v6l-4-1-4-5-8-3-21-3v-1l9-1 14 2h15v-2h2l1-34z" fill="#181510"/>
<path transform="translate(779,1016)" d="m0 0h5l5 5 4 5v7l2 1-3 4 12 5 3 2v2l-3 2h-3l-1-2-5-1-1 2-6-2-3-3 4-1 5 1-3-3-10-3v-2l8-1v-2l-5-2-3-10-7 4 2-4z" fill="#CCC6CC"/>
<path transform="translate(784,1456)" d="m0 0 4 1 5 5 7 11 2 4v12l-7-6-7-8-4-9-1-9z" fill="#27211B"/>
<path transform="translate(580,1172)" d="m0 0 3 3 2 8v7h2v2l3 1v2l2 1-2 3-13 4-7 2 6-14 2-13z" fill="#7380AF"/>
<path transform="translate(660,890)" d="m0 0 3 1h-2l-2 5-5 3-1 8-3 3-1 5 1 11v10l-4-1-4-6-3-9 1-5 7-8 2-6 2-4 1-3h2v-2l5 1z" fill="#433732"/>
<path transform="translate(619,1893)" d="m0 0h4v4h5l1 2 7 1v3h-6v-1h-12l-10 4-10 7-9 5h-2v-4l3-3h2l2-4 6-3h3l1-3 6-5h3v3l3-1-1-4z" fill="#50413A"/>
<path transform="translate(789,1088)" d="m0 0 10 2 18-1 2 2-16 2-11 4-7 1-11 3-4 6h-2v-15h3l-1 6 6-3 3-6z" fill="#AEAAB9"/>
<path transform="translate(606,1011)" d="m0 0 1 2-3 8v16l2 1v-5l3-2 3 7 4 2-3 1h-4l-2 5-6 5-4 1-1-3 1-12 2-7-1-8z" fill="#999FC5"/>
<path transform="translate(710,842)" d="m0 0h2l5 5h6 3l-2 4 1 4-4 11-1 12 3 1-3 8-3-3-3-5 2-17 2-3 2-9-6 4-6 2-1-3 2-9z" fill="#BC7558"/>
<path transform="translate(783,1377)" d="m0 0 1 4 7 1 10 5 1 1v5l-5-2-10-1-6-3v3h-2l-2-2-4 1-3 1-6-4-3 3 1-5 3-3 1 1 5-1h9l1 2z" fill="#3B2E2B"/>
<path transform="translate(707,1983)" d="m0 0h26l2 1 9-1h7l4 2-1 3-16 3h-18l-9-3 2-2-6-2z" fill="#1B1712"/>
<path transform="translate(520,1315)" d="m0 0 4 2 2 3v4l4-3 9-2 1 13-3 6-2 2h-5l-4-6-3-10-3-4z" fill="#392B29"/>
<path transform="translate(696,934)" d="m0 0h6l2 2h-2l-2 4-7 11-2 4h-2l-2 4-5 9-4 4-1-2-5 1 2-4 7-11 13-18z" fill="#BDB9C8"/>
<path transform="translate(752,1935)" d="m0 0 5 1 5 4 6 8 4 2 1 6-5 3-3-1-6 1v2l-7 1 2-1 1-5h2v-14l-4-2-3-2v-2z" fill="#282320"/>
<path transform="translate(731,912)" d="m0 0h2l-1 8v35h-1l-1-14-3 2-2 6h-1v-8l2-11-10 6v-4l8-12z" fill="#BCB8C7"/>
<path transform="translate(700,735)" d="m0 0 6 1 9 6 6 2 2 7h-5v-2l-5 1 2 4-5 2-6-1 2-5h2l-6-6 1-1h-14l2-4zm-2 2m2 0v2l5 1-3-3z" fill="#2D2724"/>
<path transform="translate(776,1235)" d="m0 0 2 4 3-1v21l-5 13h-2l-1 7-3 1-1-3v-7l2-5 3-18z" fill="#603E3D"/>
<path transform="translate(754,1183)" d="m0 0 1 2 7 2 3 4-5 16-4 3-4-7-3-5v-7l2-6h2z" fill="#BAB7C7"/>
<path transform="translate(817,1935)" d="m0 0h2l1 3v12l-4 6-5 4-5 3h-2l-1-4 3-3 2-4-6 2-4 3 2-4 7-6h2l1-4 4-2 2-5z" fill="#493E39"/>
<path transform="translate(792,1824)" d="m0 0 5 2 6 4v10l-8-2-2-1-2-5-6-2h-9l1 5 6 4h-3l-9-5-1-6 4-2z" fill="#231F18"/>
<path transform="translate(792,1079)" d="m0 0 12 1 1 2-1 6 5 1v1l-14 1-3-2h-13l-2 6-4 3h-3v-12l16-1 9-3h-6z" fill="#C9C3CB"/>
<path transform="translate(787,1074)" d="m0 0h18l7 2-3 2-17 2v1l4 1-10 4-14 1 2-6 9-6z" fill="#B2ADB9"/>
<path transform="translate(712,805)" d="m0 0 2 1v2l3 1-1 5 5-1 1 2h-3l6 2 8 2 3 3v7l-3 7h-1l-1-10-3-3h-2l-1 2-5-1-2-3-1-2h-2l1 5h-3v-3l-3 8h-2l-3-8v-13h1l1 10h2l1-2v3l1 1 4-3-1-3 1-3-4-1z" fill="#3B2D2A"/>
<path transform="translate(766,1891)" d="m0 0h3l1 2-1 2h6l1 1v6l-2 2-2 6-5 12-4 7-1 5-2-4v-5l4-4 2-5 1-5h-4l-1 4-3-1 2-7 1-3h-3l2-6h2l4 9v2l1-1-1-4-3-10h2z" fill="#63554F"/>
<path transform="translate(691,955)" d="m0 0 2 3v6l-8 15-1-2-7 2-2 2-4-1-3 2 3-9 4-4 4 1 6-8 2-4z" fill="#959DC5"/>
<path transform="translate(541,1942)" d="m0 0 13 2v2l23 1v1l-7 1h-15l8 1v5l-8 2h-21l-12-2-3-2-3-10 4 1 5 7 10 4h19l2-1v-2l-8-1-3-2 2-1-7-2z" fill="#1B1816"/>
<path transform="translate(673,789)" d="m0 0 9 2 1 2-3 1 1 5 4 5-1 3-7-1 2 2-10 3h-7l-4-4v-6l5-2-2 4 2 2 9-3 5 1v-2l-3-1v-2h-2z" fill="#312724"/>
<path transform="translate(746,1877)" d="m0 0 4 1 2 2 4-1v4l-4-1-1 5-8 11-8 7-5 3-3 1 2-4 11-17 5-10z" fill="#151314"/>
<path transform="translate(573,1896)" d="m0 0v3l-4 4h-2l1 2 3 1-1 2-7 1-8 3-6 2h-4l-1 2-13 1v2l-7-1v-1l10-3 23-11 15-6z" fill="#25201A"/>
<path transform="translate(692,790)" d="m0 0 3 1 2 2h2l1-3 3 2 4 8 2 1v-3h3l2 6 2 4h-2l-1-2-1 4 3 1v6l2 1-5 2-2 2-2-2 1-2h-2l-2-10-5-8-9-7z" fill="#41342F"/>
<path transform="translate(559,1309)" d="m0 0 1 3-11 33v3l-4-1-1-13 5-4-1-4-1-3 6-12 4-1 2 1z" fill="#2B2522"/>
<path transform="translate(818,1805)" d="m0 0h2v2h2v-2h2l2 3-2 21-1 9-2-4-4-10-5-12-2-5h4v3l2-1-1-2z" fill="#625651"/>
<path transform="translate(591,1233)" d="m0 0 1 4-7 21-4 10-9 26-3 8-6 17-4 10 5 1-3 9-6-2-1-3 10-27 7-18 4-13 5-12z" fill="#221E1B"/>
<path transform="translate(722,1226)" d="m0 0h23l1 1v9l-8 2-8 1-3 1-3-11z" fill="#D98F6A"/>
<path transform="translate(663,734)" d="m0 0h5l2 5 4-2h4l-1 6-3-1-2 5h-2l-1 11-2 1v-11l-4 6-4-1-7-3 4-1 4 2-1-4 3-12z" fill="#1B1817"/>
<path transform="translate(675,778)" d="m0 0h5v3l4-1 4 2-3 4 3 4-5-1-1 2-11-2h-13l-1-3 8-5z" fill="#BC7558"/>
<path transform="translate(810,1893)" d="m0 0 4 4 5 17-1 7-1 3h-2v2l-3 1-1-8h-3v-4h-3l4-7v-4l-3 4-2-1 5-9z" fill="#433731"/>
<path transform="translate(673,1739)" d="m0 0 2 1 4 29v7l-1 7-2-2-4-10-1-4-3-1 1-5 3-1v-3l-2 1v-11l1-4v-2h2z" fill="#1B1814"/>
<path transform="translate(810,1919)" d="m0 0 2 2 1 5h2v-2h2l1-5 2 2v12l-5 6-5 5-8 7h-2v-2h2l1-5 4-7 1-10h2l-1-6z" fill="#3D2F2C"/>
<path transform="translate(557,1016)" d="m0 0 3 3 1 4 2 5 2 14 4 5v4l-4-1-1-3-7-1-5-7 8 1-1-3-5-2v-10z" fill="#7381B4"/>
<path transform="translate(713,1285)" d="m0 0 7 2 10 4 2 4-3 7-3 1-7-1-3-1-2-9v-2h-5l-1-2h4z" fill="#413630"/>
<path transform="translate(754,1611)" d="m0 0 9 1 24 11 14 8 2 4v6l-2 1-13-8-3-3 4 1-2-7-6-2-14-6-8-1-4-1z" fill="#26211D"/>
<path transform="translate(672,1047)" d="m0 0 5 1 16 7 3 4-6-2-2-1 2 5 8 8-1 2-2-2h-3l-4-3-1 3-5-2-3-7-5-7z" fill="#B8B5C3"/>
<path transform="translate(791,1543)" d="m0 0 2 4 3 4 7 2-3-7-1-2 6 2 4 9 2 7-1 4-12-1-2-1-2-10-3-6z" fill="#433832"/>
<path transform="translate(644,1184)" d="m0 0 10 1 12 3 2 1h6v3l-3 1-3 3-14-1-11-4z" fill="#B8B5C6"/>
<path transform="translate(747,1969)" d="m0 0h8l2 1v2h-3l-1 3-5 2-45-1-1-4 19 2v-2h9z" fill="#ACA9BA"/>
<path transform="translate(732,1966)" d="m0 0h7l-2 2-12 3-19-1v2h-4l3 6 1 1 9 1 2 1h27l11-3-1 3-12 3-8 1-2-1h-21l-6-2-4-5-4-4 3-4 29-2z" fill="#2D2723"/>
<path transform="translate(708,931)" d="m0 0h3l1 4-5 5-2 5-9 15-3 4-2-12 7-10 4-7 4-2zm-19 24 2 1-2 1z" fill="#9AA1C5"/>
<path transform="translate(736,942)" d="m0 0 3 1 7 11 5 8 1 7-5-1 1 3-4-2-6-10-2-6z" fill="#BBB7C7"/>
<path transform="translate(792,1877)" d="m0 0 5 4 1 5 6 2-1 2-12 3-3 2v5l-4-2-7-8-2-5h14l7 1-4-6z" fill="#181511"/>
<path transform="translate(614,1904)" d="m0 0 2 1-3 7h-2l-2 10-3 5-4 1-3-1-9 4h-2l-1 3-4 1h-18v-4l3-2 3 1-2 3 18-1-1-3 10-4 1-5 1 3 4-1v-3l5-5 6-9z" fill="#B57358"/>
<path transform="translate(693,1220)" d="m0 0 12 1v3 1l-8 2h-40l-10 1v-4l7-1 23-1 3 1h7l3-1v3l2-2 4-1z" fill="#C9C3CB"/>
<path transform="translate(606,1937)" d="m0 0 4 1-12 4h6l-2 2-14 4-13 2h-20l-4-2h19l-16-1-2-2 30-1 12-3 8-3z" fill="#584C49"/>
<path transform="translate(788,1523)" d="m0 0 4 4 8 15 1 4 2 3v4l-7-1-4-5v-4h-2v7h-1z" fill="#40342F"/>
<path transform="translate(766,1342)" d="m0 0 6 1-2 10-1 6 2 3-1 8-2 5 2 1-4-1-5-5 2-8 5-13 1-5-4 4-8 11-2 1 2-5 8-12z" fill="#BC7558"/>
<path transform="translate(624,1207)" d="m0 0h1v7h2l1-2 1 3h7l1 4 2-5h3l1-3 3-1 1 4 6 2-4 2-1 4h-2l-1-3v2l-7 2h-9l-5-3z" fill="#C1BDC9"/>
<path transform="translate(757,1644)" d="m0 0h8l-2 1v2h6l4-1 4 1 1-2v10l3 4 5 3 3 3v5h-6l-5-4h3l-5-8-3-2v-2l-5-2-9-5z" fill="#181510"/>
<path transform="translate(549,1251)" d="m0 0 1 3-10 30-3 16-2 2-2-5v-14l5-9 7-17 2-2z" fill="#1C1A19"/>
<path transform="translate(810,1708)" d="m0 0h1l1 54-2 37-2 1-1-13v-21l2-15z" fill="#24201B"/>
<path transform="translate(737,967)" d="m0 0 5 2 5 6 2 4v16l1 4v15l-2 2-2-9-2-24-7-15z" fill="#CCC6CC"/>
<path transform="translate(584,977)" d="m0 0 7 1 7 2v4h-2l-2 4-7 6-5-1v-10z" fill="#A7A9C6"/>
<path transform="translate(651,1301)" d="m0 0 6 2 12 11 7 9-1 3-9-7v-2l-4-1-5-2v-2l-3-1v-2h-2l-2-3z" fill="#282320"/>
<path transform="translate(642,1238)" d="m0 0 2 3h2v2h-2l4 9 1 12h-5l-2-3-3-11-3-6v-4z" fill="#6A5B56"/>
<path transform="translate(706,1986)" d="m0 0 9 3 5 1h18l20-4 4 1-20 5 15-3h5l-3 2-18 4h-18l-9-3-8-3z" fill="#554A47"/>
<path transform="translate(644,1230)" d="m0 0h25l-2 2-12 2-18 2-7 2h-5l-2-3-2-1 5-1v-2z" fill="#342D2A"/>
<path transform="translate(599,1194)" d="m0 0h2v3h2l-1 7-7 20-4 12h-3l-1-4 12-34z" fill="#635C5F"/>
<path transform="translate(635,923)" d="m0 0 5 1v2h2l4 8 13 10 5 5-4 5-2-2-6-5 4-2-11-8-7-2-4-6z" fill="#9299BE"/>
<path transform="translate(728,1073)" d="m0 0 4 5 3 4 5 2 1 4-6 1h-2l2 6-1 6-3 1v-10l-7-1-1 3v-3l-3-1 2-4 4 1 5-1-2-5-3-3 2-1z" fill="#CAC4CB"/>
<path transform="translate(640,978)" d="m0 0h1v8l-6 16-1-4h-8v2l-3 1 1-5 4-2 1-4 6-7 2-2z" fill="#CBC5CB"/>
<path transform="translate(736,1577)" d="m0 0 15 1 12 3v5l-8 1-1 2-9-5-9-2z" fill="#27221F"/>
<path transform="translate(733,1244)" d="m0 0 6 1 4-1 8 28-1 2-5-10-3-12-17 2 3-5 2-1 1-3z" fill="#625752"/>
<path transform="translate(636,832)" d="m0 0h9v2l19 1v-2l3 1v6h-3l-10-2h-11l-6 2-5 9h-1v-7l4-9z" fill="#27201D"/>
<path transform="translate(818,1725)" d="m0 0h2v2l6-1 2 2-1 15-1 11-1 2h-2l-2-5v-7l1-5-1-7-3-3z" fill="#625752"/>
<path transform="translate(784,1430)" d="m0 0 4 1v2l4 1 8 7v8l-9-3-7-7z" fill="#3B2D2A"/>
<path transform="translate(584,1920)" d="m0 0 2 1-2 3 2 2 5-1 6-3-1 4-9 4v2l-5 1h-13l2-4 5-5 5-1z" fill="#B3ADB9"/>
<path transform="translate(723,1249)" d="m0 0 4 1-15 4-12 3 14-3 4 1-15 5h-2v2l-7 2 1 2h-4l2-6-10 2v-2l8-2v-2l7-2z" fill="#2A2421"/>
<path transform="translate(776,1022)" d="m0 0 4 1 2 6 3 2-1 3h-13l-2 3-2 6-1-2-3 1v-2h-2l1-4 4-1z" fill="#B2ACB8"/>
<path transform="translate(671,1027)" d="m0 0 7 1 1 6v12l4 3-5-1-7-4-4-1v9h-1v-14l1 2h2v-8l2 1v2l3 1v-5l-4-3z" fill="#BFBBC9"/>
<path transform="translate(600,1932)" d="m0 0h6v1l-9 2-3 6v1l-12 3h-12l-2-1v-2h-3v-2l18-1 13-6z" fill="#1A1712"/>
<path transform="translate(788,1904)" d="m0 0 2 1 2 6-4 1-5 21 2 1 2 3-1 4-5 5-4-1 3-3-1-4v-11l5-10v-5l3-1z" fill="#413530"/>
<path transform="translate(690,1227)" d="m0 0h8v2l-10 3h-5l1 8 5 13-1 3h-2l-5-11v-5h-2l-2-8 2-4z" fill="#362E2A"/>
<path transform="translate(781,1057)" d="m0 0h8l-2 5-1 4 5-3 3 1-5 6-5 3h-3l-1-4 4-3-1-2 1-2-6 3-3 2h-3l1-5-2-2z" fill="#B3ADB9"/>
<path transform="translate(737,826)" d="m0 0h1v8l-2 5 1 11-8 19-2-2 2-11 1-2 1-8h-5l6-7 4-6z" fill="#483D39"/>
<path transform="translate(649,1141)" d="m0 0 8 4v16l-3 4-1-6-2 2-4-2 1-13z" fill="#CAC4CB"/>
<path transform="translate(773,1909)" d="m0 0 2 2-4 11v6 4l-2 3h-2l-1 6-2-1-2-4v-7l9-18z" fill="#A6A4B7"/>
<path transform="translate(796,1603)" d="m0 0 2 4v5h-11l-13-3 1-3 8-2z" fill="#27221E"/>
<path transform="translate(789,1944)" d="m0 0h4l-2 4-4 3h-2l-2 7 3-1v3h-3l-1 3h-2l-2 5-4 4-8 3-8 2-2 2-1-2 3-3 12-5 6-3 3-10 5-6 3-2-2-2z" fill="#40332F"/>
<path transform="translate(644,1180)" d="m0 0 13 2 13 3v2l7-1 10 4v2l-8-1-11-1-14-4-10-2-1 2z" fill="#CDC7CC"/>
<path transform="translate(637,1152)" d="m0 0h7v11l-1 4-12 1-2-6 2-5h3v2l6-1 1 1 1-3h-5z" fill="#B9B6C7"/>
<path transform="translate(632,1134)" d="m0 0 7 2 2 6 1 7-8 2 1 5-4-1-1-6z" fill="#B5B3C7"/>
<path transform="translate(766,1345)" d="m0 0 2 1-7 13-4 7-3 2-3 5-3 4h-5l-1-4 3-3 1-2h2l-5-6 1-2 8 6 1-3 2-1 4-7z" fill="#231E1B"/>
<path transform="translate(758,1586)" d="m0 0h18l8 2 8 3 4 1v2l-7 1 1-2-5-1-9-1-10-2-10 4-5 1 1-6z" fill="#191611"/>
<path transform="translate(705,1224)" d="m0 0h46l15 1v1h-16l1 2v6l-5 2-1-9h-21l-2-1h-9l-8-1z" fill="#674843"/>
<path transform="translate(643,818)" d="m0 0 8 1 3 4v2h-9l3 2v2l-3 1 10 4v1h-10l-1-2-6-1 1-6h2l-1-4z" fill="#4F3432"/>
<path transform="translate(745,1963)" d="m0 0 3 1-4 1v2l2 2-9 3-14 1-2-1v2h-13l-5-1 3-1v-2h19l4-1 10-2v-2z" fill="#675750"/>
<path transform="translate(507,1353)" d="m0 0 5 2 1 3 3 1v2l5 2 4 3 9-1 5-3v-1h8l2 1-1 2-9 3-8 4h-6l-11-9-7-8z" fill="#6E4948"/>
<path transform="translate(688,1912)" d="m0 0h4 2v2l4 1v6l-4 5-3 1-6-2v-4l2-2-2-2 1-4z" fill="#181510"/>
<path transform="translate(768,1847)" d="m0 0 6 1-1 2 3 1v2h10l6 4v1h-15l-12-2 1-5z" fill="#191611"/>
<path transform="translate(800,1596)" d="m0 0 15 15v2h2v2l4 2 1 4-6-2-12-6-1-2 6 1 1-4-9-1-1-1z" fill="#413630"/>
<path transform="translate(678,1022)" d="m0 0 2 3 4 8 3 3h-3l2 2v8l-1 2-6-1-1-4v-9l-1-5-2-1-1-4z" fill="#B3B2C6"/>
<path transform="translate(668,769)" d="m0 0h9l-4 2-15 5-6 3-3 6-9 7-3 3 1 2-4-1 6-9 6-7 10-7 6-3z" fill="#362A28"/>
<path transform="translate(703,1976)" d="m0 0 41 3 4 2-4 1h-27l-2-1-9-1z" fill="#643C3C"/>
<path transform="translate(717,979)" d="m0 0h7l-1 10-1 2 2 1-4 6-3-3v-3l-3-2-1-5 1-5z" fill="#CBC5CB"/>
<path transform="translate(759,1909)" d="m0 0 1 3v2l2 1 1-5 5 1-1 5-4 8-2 1v8l-4-5-5-8v-5h4l3 6 4 1v-3h-3l2-3-4-1z" fill="#302925"/>
<path transform="translate(750,1226)" d="m0 0h19l4 2-1 1-9 1-2 3 2 1-1 1-15 1 4-2z" fill="#382C29"/>
<path transform="translate(807,1807)" d="m0 0h1v15l-1 31v16l3 1-7 2-1-7 2-8 1-30z" fill="#1D1915"/>
<path transform="translate(618,1901)" d="m0 0h14l-2 2-14 1-5 5-6 9-2 2 1 4-6-1v-2h2l2-4 6-7-5 4-4 4-1-1v-5l14-9z" fill="#DFD6D4"/>
<path transform="translate(669,1882)" d="m0 0h7l5 5 7 4 2 10h2l1 5-1-2-4-2-2-4v-3h-9v-2l4-1-11-6z" fill="#171410"/>
<path transform="translate(792,1104)" d="m0 0 17 1-3 2-18 5h-2v2l-6 2v-6l8-5z" fill="#AEAABA"/>
<path transform="translate(763,1943)" d="m0 0 5 5 4 2 1 6-5 3-3-1-6 1v2l-4-1h3l2-5 2-7z" fill="#40352F"/>
<path transform="translate(704,807)" d="m0 0h1l1 14 2 8h2l-1 4-2 3h-3v-2h-2l-3-6 2-5 2-10z" fill="#BA7357"/>
<path transform="translate(632,1871)" d="m0 0 6 5v2h-2v3l-5 2-5-1v2l-4 2h-4l-1 3h-2l2-4 4-2 2-4 2 1 4-6z" fill="#B87357"/>
<path transform="translate(567,1321)" d="m0 0 1 3-4 11-5 12-6-2 1-6 3-4 4 4 1-6 2-3-5-1 2-7z" fill="#595253"/>
<path transform="translate(725,1107)" d="m0 0h7l2 1v7l1 7 1 5-3 1-2-1-3-12-3-3z" fill="#CCC6CC"/>
<path transform="translate(764,1381)" d="m0 0 2 1 5-1h9v3h2l-1 6h-2l-2-2-4 1-3 1-6-4-3 3 1-5z" fill="#372B28"/>
<path transform="translate(672,1203)" d="m0 0 23 1 1 3-6 2-2 3 3-1v3h-5l-5-5-9-3z" fill="#C9C3CB"/>
<path transform="translate(630,1177)" d="m0 0 5 2 3 2 4-1v7l-1 4-9-2-4-3z" fill="#CBC5CC"/>
<path transform="translate(796,1469)" d="m0 0 5 5 1 3v12l-7-6-7-8-1-5 3 3v2h6z" fill="#2A2521"/>
<path transform="translate(690,1874)" d="m0 0 3 3-2 10-5 1-1 2-7-4-2-3-14-2-3-3 5 1h10l12-2-2 5-2 3 7 1z" fill="#2C2622"/>
<path transform="translate(738,1464)" d="m0 0h4l2 3 5 1 1 4-4 1-1 2-4-1 1 3-2 5-2 1-2-14z" fill="#27221E"/>
<path transform="translate(716,1098)" d="m0 0 2 3 3 6 1-9h1v17l9 19 3 5v2l-4-2-2-3-2-6-9-19-3-10z" fill="#C5C0CA"/>
<path transform="translate(611,1927)" d="m0 0 2 1-6 4-11 2-13 6-19 1-13-2v-1h31v-2l8-1 2-4 14-1z" fill="#2E2622"/>
<path transform="translate(765,924)" d="m0 0 2 4 1 5-7 11-5 9h-1v-8l3-8 4-6z" fill="#C7C2CA"/>
<path transform="translate(565,1900)" d="m0 0h2v2l-2 1-2 4-11 2-9 4-6 1v2l-6 1v2l-7-1v-1l10-3 23-11z" fill="#50423E"/>
<path transform="translate(737,1599)" d="m0 0 10 1 6 2 12-1v3h-2v2h-11l-2-1 1 3-6-2-8-5z" fill="#241F19"/>
<path transform="translate(738,1237)" d="m0 0h6l-1 7-4 2-8-1-1 4h-2v-9l2-2z" fill="#483A35"/>
<path transform="translate(627,1863)" d="m0 0 3 1 1 3-12 12-6 12-2-3 1-5 8-12 5-7z" fill="#292421"/>
<path transform="translate(781,1479)" d="m0 0h1l1 17h2l2 19v17h-2l-3-5 1-4v-12l-2-19z" fill="#514641"/>
<path transform="translate(732,1352)" d="m0 0h2l2 3-1 7-3 6-6 1-1-1v-6l3-5h2l1-4z" fill="#633F40"/>
<path transform="translate(782,1151)" d="m0 0 2 1-1 3-1 15-4-4-4 1h-4l2-5h2l2-6 1-2h3v-2z" fill="#7281B4"/>
<path transform="translate(657,1226)" d="m0 0h26l7 1v1l-21 2h-20l2-3z" fill="#ACA9B9"/>
<path transform="translate(646,911)" d="m0 0h2l2 15v10l-4-1-2-2v-10l2-6h-3l2-5z" fill="#322A27"/>
<path transform="translate(776,1545)" d="m0 0 5 1-2 1v6l1 3v6l8-1-2 8-6-2-2-2-3-12-2-6z" fill="#3C2D2B"/>
<path transform="translate(663,968)" d="m0 0 1 2-4 12h2v3l-2 1v6l1 3-6-1 1-4-4-1v-6h2v-3h5l1-5z" fill="#C4BFCA"/>
<path transform="translate(700,735)" d="m0 0 6 1 9 6-1 2h-7l-4-1h-14l2-4zm-2 2m2 0v2l5 1-3-3z" fill="#8E92B1"/>
<path transform="translate(668,1218)" d="m0 0 15 1 8 1-3 4h-8l-3-1h-9l-14 1 1-2 10-2z" fill="#DAD2D2"/>
<path transform="translate(769,1277)" d="m0 0 3 2-1 7-4 8-5 4-1 2-5 2 2-5 3-5 1-2h2l3-10z" fill="#603C3B"/>
<path transform="translate(601,1223)" d="m0 0 1 4-6 19-1 9-2 2-2-5v-3l-1-4 4-12 3-3-1 5h2l2-9z" fill="#3A322E"/>
<path transform="translate(787,1626)" d="m0 0 6 2 6 5 4 2v6l-2 1-13-8-3-3 4 1z" fill="#181511"/>
<path transform="translate(663,734)" d="m0 0h5l3 6-5 5-2 1-2-1v8l-9-2-1-2 6 1 2 1-1-4 3-12z" fill="#645D62"/>
<path transform="translate(769,1985)" d="m0 0 2 1-1 3-14 6-12 1-8 1h-13l-1-2 19-1 18-4h3v-2z" fill="#382F2C"/>
<path transform="translate(813,1855)" d="m0 0 4 1 4 5 2 8v9l-1-4-3 1-2-2-1-7-3-7z" fill="#625752"/>
<path transform="translate(598,983)" d="m0 0 5 1-2 5-1 1-1 7-1-4-7 3h-10l1-3 3-1v2l8-6z" fill="#959DC5"/>
<path transform="translate(755,911)" d="m0 0h2l-1 4 4-1v11l-5 8-1-2-3-1 2-5 1-13z" fill="#B6B4C7"/>
<path transform="translate(806,1951)" d="m0 0 3 1-2 1-1 4h-2v7l-9 4h-4l2-4 9-11z" fill="#413230"/>
<path transform="translate(562,989)" d="m0 0 2 2 3 14v4l-4-1-5-5 1-9 1-4z" fill="#7483B5"/>
<path transform="translate(629,1867)" d="m0 0h2v3l2 1-6 7-2 3h-3l-5 5-3 9h-1l1-9 6-9 7-7v-2z" fill="#483E39"/>
<path transform="translate(584,1914)" d="m0 0h5l-3 6-4 3-2 1-7 1-4 1v-2l9-4-17 5-4-1 21-7z" fill="#413833"/>
<path transform="translate(777,1045)" d="m0 0 4 2 10 4-4 1-5-2 3 3h2v2l-7 2h-7l1-6z" fill="#B2ACB8"/>
<path transform="translate(775,1973)" d="m0 0 2 1-1 5-5 3-12-1-4 1-1-2 3-3 13-2z" fill="#241F18"/>
<path transform="translate(628,1280)" d="m0 0h6l-2 15-5 3h-2l1-11z" fill="#292420"/>
<path transform="translate(530,1154)" d="m0 0 2 1v9l-1 10-2 5-1 7-4 1 2-14z" fill="#453330"/>
<path transform="translate(561,1137)" d="m0 0 7 1 9 3-4 2-2-1-4 8h-3l-3-5-2-3 2-1z" fill="#3B2E2B"/>
<path transform="translate(608,1943)" d="m0 0h2l1 3-20 6-8 1-10-1v-1l22-4z" fill="#745D55"/>
<path transform="translate(813,1781)" d="m0 0 4 1 3 1v2h2l3 5 2 1 1 5-3 3-2-5-6-3-3-3z" fill="#2A2523"/>
<path transform="translate(742,766)" d="m0 0 3 3 2 7-11 1-1-3-5-2 3-2z" fill="#342D2A"/>
<path transform="translate(672,1707)" d="m0 0h1l1 31-3 2-1-4-1-16v-11h2z" fill="#221F1D"/>
<path transform="translate(647,983)" d="m0 0h2v7l-5 17-5 4 1-6 5-19z" fill="#E4DAD7"/>
<path transform="translate(616,1903)" d="m0 0h14l-1 3h-11l-1 3-2 17h-3v-14l3-7z" fill="#332723"/>
<path transform="translate(692,1195)" d="m0 0 10 3 2 1v3h-32v-1l15-1-1-3z" fill="#BAB6C6"/>
<path transform="translate(761,1060)" d="m0 0 2 1 3 8 2 3 1 6-4 1-5-3-1-2 1-7-1-4z" fill="#8990B6"/>
<path transform="translate(516,1943)" d="m0 0 4 1 5 7 10 4 20 1v1h-21l-12-2-3-2z" fill="#4F4B51"/>
<path transform="translate(656,1194)" d="m0 0 21 3 16 3v1h-23l-13-5z" fill="#989FC5"/>
<path transform="translate(733,774)" d="m0 0h2l1 2h11l1 5-3 1-3-1v-2h-3v3l5 1-4 3h-3v-2l-4 1v-4l2-2-1-2-4-1z" fill="#27221F"/>
<path transform="translate(578,1919)" d="m0 0 2 1-8 4h-3l-1 3-8 2h-7l1-2-16-1v-1l23-1z" fill="#231F1C"/>
<path transform="translate(688,1871)" d="m0 0 2 2v13l-1 1-7-1v-3l3-5-6 1 4-4z" fill="#433832"/>
<path transform="translate(788,1494)" d="m0 0 4 1 7 15-4 1-5-5-4-9v-2z" fill="#423731"/>
<path transform="translate(722,1226)" d="m0 0 12 1-2 2 2 6 4 2v1l-8 1-3 1-3-11z" fill="#B9765A"/>
<path transform="translate(722,953)" d="m0 0h1l-1 11-2 14 4 1-10 1 4-16z" fill="#E4DAD7"/>
<path transform="translate(673,789)" d="m0 0 9 2 1 2-3 1 1 5 4 5-1 3-4-2 2-1-10-6z" fill="#643C3C"/>
<path transform="translate(724,846)" d="m0 0 2 1-2 4 1 4-4 11-1 12 3 1-3 5-2-2v-14l2-12 1-3v-5z" fill="#613B3A"/>
<path transform="translate(624,1886)" d="m0 0 2 4-1 2-6 2h-4l2 5h-4v-3l-5 3-5 5-4 1 1-3 8-6 1-1h5l1-5 3-1 1-2z" fill="#322A26"/>
<path transform="translate(544,1248)" d="m0 0 2 3-1 9-7 17h-3l6-22z" fill="#26211D"/>
<path transform="translate(711,966)" d="m0 0 5 4-1 8-1 1-9 1 3-10z" fill="#C8C3CB"/>
<path transform="translate(755,1863)" d="m0 0 8 4 2 7-2 3 5 2 1 2-9-1-1-5-4-9z" fill="#191611"/>
<path transform="translate(771,1635)" d="m0 0 5 2 9 5 16 5 3 3v5l-5-1v-3l-2-2-5-1-12-6-4-1v-2l-4-2z" fill="#27221F"/>
<path transform="translate(611,1912)" d="m0 0 2 4v11l-7 4h-11l4-1v-4l6 1 3-5z" fill="#5A423F"/>
<path transform="translate(798,1108)" d="m0 0h2v2l9 3v2h-5v-1h-11l-12 5-1-2h2v-2l4-1v-2z" fill="#C0BBC8"/>
<path transform="translate(787,1087)" d="m0 0h10l1 3h-4l-5-1h-10l-2 6-4 3h-3l1-8 3-2z" fill="#B7B3C3"/>
<path transform="translate(790,1074)" d="m0 0h15l7 2-3 2-17 1h-5v-2h2z" fill="#ADAABA"/>
<path transform="translate(600,1904)" d="m0 0 2 1v4l-4 4-9 5h-2v-4l3-3h2l2-4z" fill="#746059"/>
<path transform="translate(760,1758)" d="m0 0 4 1 5 2 2 5-3 3h-5l-3-3-1-7z" fill="#191611"/>
<path transform="translate(769,1226)" d="m0 0h8v8h-14l-2-1 2-4 9-1z" fill="#685B56"/>
<path transform="translate(767,1344)" d="m0 0h2l-1 8-6 16 1 5-4-2-1-5 6-15 3-6z" fill="#643C3C"/>
<path transform="translate(619,987)" d="m0 0 2 1-4 10-7 9-1-4-4-2 4-2 7-9 3-1z" fill="#959DC5"/>
<path transform="translate(698,934)" d="m0 0 6 1-2 1-2 4-7 11-2 4h-2l-2 4-1-2 5-10 6-11z" fill="#E2D8D6"/>
<path transform="translate(750,1975)" d="m0 0 3 1-7 3h-15l-26-2v-1h43z" fill="#BC7558"/>
<path transform="translate(762,1439)" d="m0 0h1l3 17v8l4 6 2 8-2 2-3-6-3-7-1-15-3-9z" fill="#3C2D2B"/>
<path transform="translate(707,1062)" d="m0 0 2 1 1 20-2 4-5-7-3-2v-2l-4-2 3-3 6 8v2h2z" fill="#C0BCC9"/>
<path transform="translate(711 2e3)" d="m0 0 4 1 3 2-4 1v2h-11l-11-2-2-2 3-1 5 1h7l6-1z" fill="#302A25"/>
<path transform="translate(799,1717)" d="m0 0 7 1 2 1v5l-4 2-8-2-1-4z" fill="#282320"/>
<path transform="translate(636,933)" d="m0 0 8 3-1 3-2-1v6l-7 4-3 3 3-10z" fill="#625752"/>
<path transform="translate(778,1912)" d="m0 0h4l-6 15-1 5-2-2-1-10z" fill="#AFA4AB"/>
<path transform="translate(802,1116)" d="m0 0h9l4 2-15 3v-1h-8l-1 4-7 2-1 3-1-3 10-8z" fill="#604744"/>
<path transform="translate(696,784)" d="m0 0 3 1v2l4 2v2l4 1v3l4 3h-2v3l-4-2-3-7-2-1-3 3-4-4 4-1v-3l-2-1z" fill="#282320"/>
<path transform="translate(776,1235)" d="m0 0 2 4 3-1-1 17-3-3-2 2v-16z" fill="#61534F"/>
<path transform="translate(624,1207)" d="m0 0h1v7h2l1-2 1 3h2v3h2v2l4 2v1h-8l-5-3z" fill="#B5B1C0"/>
<path transform="translate(744,789)" d="m0 0 8 1 1 7v4l-4-1v2l-4 1-1-6 5-5h-5z" fill="#473C38"/>
<path transform="translate(734,764)" d="m0 0h7l1 3-11 5-4 1-4-1v-2h3v-4l3-1v2l5-1z" fill="#2E2824"/>
<path transform="translate(769,1889)" d="m0 0 7 1 11 10 2 2-4 4-4-7-9-7-5 1z" fill="#7F6258"/>
<path transform="translate(708,808)" d="m0 0h3v3h4v6l2 1-5 2-2 2-2-2 1-2h-2l-1-9z" fill="#3F302D"/>
<path transform="translate(777,1902)" d="m0 0 3 1 1 7-7 8-3 10h-1l1-9 3-10 1-5h2z" fill="#C8C2CA"/>
<path transform="translate(545,1350)" d="m0 0 2 1-2 9-9 1 1-2-4-3 9-3v-2z" fill="#292320"/>
<path transform="translate(710,842)" d="m0 0h2l2 5 4 2-2 4-6 3h-2l-1-3 2-9z" fill="#643C3C"/>
<path transform="translate(705,808)" d="m0 0h1l1 10h2l1-2v3l1 1 3-2 3 1h-2l1 5h-3v-3l-3 8h-2l-3-8z" fill="#633C3C"/>
<path transform="translate(597,1040)" d="m0 0 5 1 3 3 3 1-7 6-4 1-1-3z" fill="#959DC5"/>
<path transform="translate(682,990)" d="m0 0 5 1-1 10-1 3-3 1-2 4-1-4z" fill="#959DC5"/>
<path transform="translate(726,818)" d="m0 0 7 1 3 3v7l-3 7h-1l-1-10-3-4 1-1h-6v-2z" fill="#774942"/>
<path transform="translate(712,749)" d="m0 0h6v2h6l3 3v3l-4 1-1-1h-5v-2l-3-1z" fill="#282320"/>
<path transform="translate(801,1887)" d="m0 0h7l2 3h2l1 8-2-2-3 6h-4l2-13-5-1z" fill="#2B2421"/>
<path transform="translate(604,985)" d="m0 0 1 4-2 10-5 6-1-2 2-13z" fill="#CCC6CC"/>
<path transform="translate(685,1865)" d="m0 0h2l-1 5v3l-2 2-10 1-1-4 10-5z" fill="#27221F"/>
<path transform="translate(662,789)" d="m0 0h7l1 2-3 5-5 1-6-3 3-4z" fill="#292320"/>
<path transform="translate(587,1559)" d="m0 0h5l5 5v7l-5-2-5-6z" fill="#191611"/>
<path transform="translate(636,1132)" d="m0 0 9 1v4l-3 1 2 1-1 8h-2l-1-7-1-4-6-1v-2z" fill="#E0D7D5"/>
<path transform="translate(591,1927)" d="m0 0m-1 1m-22 1 3 1-2 3 18-1-1-3h4v2h-2l-1 3-4 1h-18v-4z" fill="#BC7558"/>
<path transform="translate(805,1644)" d="m0 0 2 1 1 15h-2l-1 3v-4h-5l-2-5h5z" fill="#443833"/>
<path transform="translate(787,1605)" d="m0 0m-7 1h7l1 1h7l2 1v3h-16v-2l-3-1z" fill="#241F18"/>
<path transform="translate(794,1542)" d="m0 0 5 2 4 5v4l-7-1-4-5z" fill="#282320"/>
<path transform="translate(722,1254)" d="m0 0 2 1-7 3-8 4-7 1-3 2h-6l1-2 7-1v-2l8-3 10-2z" fill="#514741"/>
<path transform="translate(632,1134)" d="m0 0 7 2 2 6-4 1v2l-5-1-1 3z" fill="#C0BCC9"/>
<path transform="translate(819,1090)" d="m0 0 4 1 7 2-1 3-13-1-8-1v-3z" fill="#C9C3C9"/>
<path transform="translate(772,1019)" d="m0 0 1 2-2 4-1 6-5 6-3 1 1-6 4-10h3z" fill="#C7C1CA"/>
<path transform="translate(614,1937)" d="m0 0 2 1-3 3 5 1-4 3h-4v-2l-13 4-4-1 11-3v-2z" fill="#2E2826"/>
<path transform="translate(766,1891)" d="m0 0h3l1 2-1 2h6l1 1v6h-5l-3-3h-3l-1-5h2z" fill="#403531"/>
<path transform="translate(792,1877)" d="m0 0 5 4 1 5 6 2-1 2h-9l-9-3v-2l11 1-4-6z" fill="#0E0D0C"/>
<path transform="translate(686,1059)" d="m0 0 4 2 8 8-1 2-2-2h-3l-4-3-1 3-5-2v-4h3z" fill="#CAC4CB"/>
<path transform="translate(671,1027)" d="m0 0 7 1 1 6v12l4 3-5-1-4-3h3l-2-5-1-9-4-3z" fill="#CFC8CD"/>
<path transform="translate(635,923)" d="m0 0 5 1v2h2l2 5v4l-7-2-3-4z" fill="#D5CDD0"/>
<path transform="translate(665,798)" d="m0 0 9 1 3 2v2l-8 1-7 2-2-4h2l1-3z" fill="#0F0E0D"/>
<path transform="translate(697,1902)" d="m0 0h1l1 7v8l-1-2-3-1v-2l-6-1 1-4 5-4z" fill="#332D2A"/>
<path transform="translate(806,1664)" d="m0 0h1l2 20 2 1v13l-3 2-2-19z" fill="#4A3F39"/>
<path transform="translate(789,982)" d="m0 0 1 4-8 16-5 11-2-3 3-7 8-15-4 1 4-5z" fill="#BDBAC8"/>
<path transform="translate(643,818)" d="m0 0 8 1 3 4v2h-12l-2-3z" fill="#462D2D"/>
<path transform="translate(753,1978)" d="m0 0h2l-1 3-12 3-8 1-2-1h-12l-1-2 25-1z" fill="#3B2C2A"/>
<path transform="translate(801,1727)" d="m0 0 7 1v9h-5l-4-5 1-4z" fill="#282320"/>
<path transform="translate(823,1119)" d="m0 0 8 1 7 4v4l-6 3h-3v-9l-6-2z" fill="#9A6957"/>
<path transform="translate(778,1964)" d="m0 0 1 2-5 6-8 3-8 2-2 2-1-2 3-3 12-5 6-3z" fill="#413530"/>
<path transform="translate(539,1361)" d="m0 0h8l2 1-1 2-9 3-8 4-4-1 5-2v-2l5-3z" fill="#B78778"/>
<path transform="translate(713 1e3)" d="m0 0 3 4 1 7 1 4-6-1-1-2h-2l-1-5 2 1z" fill="#E2D9D6"/>
<path transform="translate(547,1947)" d="m0 0h5l3 2 8 1v5l-2 1h-7l2-4-8-1-3-2z" fill="#292420"/>
<path transform="translate(694,1914)" d="m0 0 4 1v6l-3 4-7-2 2-5 2-3h1z" fill="#131112"/>
<path transform="translate(610,1896)" d="m0 0h3v5l-6 4v2l-3 2-4-1 4-7z" fill="#9C8582"/>
<path transform="translate(810,1778)" d="m0 0 1 3h2l1 7 3 1 3 3 4 2 2 6-7-2-3-3-1-5-2-1-2-5h-1z" fill="#3C2D2B"/>
<path transform="translate(815,1769)" d="m0 0 4 2 3 2 1 9-4-2-4-3-2-6z" fill="#625752"/>
<path transform="translate(750,1994)" d="m0 0h3v2l-18 4-14-2v-1l23-2z" fill="#685953"/>
<path transform="translate(746,1877)" d="m0 0 4 1 2 2 4-1v4l-4-1-1 5-8 11h-2v-2l4-4 4-7-1-3-4-1z" fill="#231E19"/>
<path transform="translate(675,1232)" d="m0 0m-5 1h5l1 4h-2l-1-1v1l-19 3-10 1 4-2 19-5z" fill="#2B2522"/>
<path transform="translate(653,989)" d="m0 0 3 1-1 4 2 1h-5v4h2v2h-3l-2 4-2-1 1-11 2-1 2 1z" fill="#99A0C4"/>
<path transform="translate(708,931)" d="m0 0h3l1 4-4 4h-3l-4 4-3 1 4-10 5-2z" fill="#BEBAC8"/>
<path transform="translate(699,1989)" d="m0 0h6l5 2-4 1 7 4-4 1-9-1-4-2v-2l6 1v-2l-3-1z" fill="#27211C"/>
<path transform="translate(581,1503)" d="m0 0 5 2 9 10 4 5-1 2-8-6-9-12z" fill="#26211D"/>
<path transform="translate(661,1167)" d="m0 0 4 2 1 4 6 2v2l-12-2-4-2h2v-5z" fill="#B9B6C7"/>
<path transform="translate(715,1983)" d="m0 0h18l2 1 8-1v2l-9 2h-9l-10-2z" fill="#241F19"/>
<path transform="translate(687,1862)" d="m0 0h2v3h3l1 3v9l-5-5-4 1 2-4z" fill="#25211E"/>
<path transform="translate(797,1082)" d="m0 0h2l-1 3-10 2-1 1-13 1-4 3v-6l16-1z" fill="#E1D7D5"/>
<path transform="translate(692,790)" d="m0 0 3 1 2 2h2l1-3 3 2-1 5 2 3-3 1-10-8z" fill="#453330"/>
<path transform="translate(812,1570)" d="m0 0h1l3 17-5-3-1-4-2-3 1-5z" fill="#695C57"/>
<path transform="translate(635,1281)" d="m0 0 2 2v7l1 4v8l-2 5-2-3v-12z" fill="#282320"/>
<path transform="translate(674,1121)" d="m0 0h1l4 32 1 4-3 1-2-10z" fill="#C4C0CA"/>
<path transform="translate(739,970)" d="m0 0 5 4 3 8v20h-1l-2-19-5-10z" fill="#B2ACB9"/>
<path transform="translate(575,1276)" d="m0 0 2 3-5 15-3 8-2 6h-2l1-5z" fill="#231E1B"/>
<path transform="translate(762,1234)" d="m0 0h13l-1 3-8 1-7-1-14 1 1-2z" fill="#0D0C0C"/>
<path transform="translate(701,948)" d="m0 0v3l-7 13h-1l-1-10 3-3 1-2z" fill="#BAB7C7"/>
<path transform="translate(710,1978)" d="m0 0h21l12 2v1h-17l-16-2z" fill="#625550"/>
<path transform="translate(696,1951)" d="m0 0h7l3 1 1 4-5 1-6-1h-4l2-4z" fill="#0D0C0C"/>
<path transform="translate(791,1561)" d="m0 0h1l1 9-2 4-3-2v-2h-2l-1-4 3-4z" fill="#433732"/>
<path transform="translate(556,1335)" d="m0 0 3 3h3l-3 9-6-2 1-6z" fill="#615857"/>
<path transform="translate(690,1227)" d="m0 0h8v2l-10 3h-5l-1 3-2-3 2-2-3-2z" fill="#423532"/>
<path transform="translate(716,1098)" d="m0 0 2 3 3 6 1-9h1v15l-3 3-4-10-1-6z" fill="#C7C2CA"/>
<path transform="translate(706,1970)" d="m0 0h12l4 2-1 2h-13l-5-1 3-1z" fill="#61534D"/>
<path transform="translate(759,1909)" d="m0 0 1 3v2l2 1 1-5 5 1-1 5-2 5-2-2h-3l2-3-4-1z" fill="#352D2B"/>
<path transform="translate(665,1622)" d="m0 0h1l1 14-7-2-2-4 3-3h3z" fill="#26221F"/>
<path transform="translate(758,1586)" d="m0 0 9 1-1 2-10 4-5 1 1-6z" fill="#1C1913"/>
<path transform="translate(782,1352)" d="m0 0 1 3-3 5-1 13 2 3-4-1-1-1v-11l5-10z" fill="#B87357"/>
<path transform="translate(540,1343)" d="m0 0h2v6l-2 5-8 3-1-2h2l1-5 4-4v4z" fill="#181510"/>
<path transform="translate(535,1283)" d="m0 0h1v6h2l-1 11-2 2-2-5 1-13z" fill="#28231F"/>
<path transform="translate(603,1199)" d="m0 0h2l-2 8-9 24-2 2 2-9 7-20z" fill="#181513"/>
<path transform="translate(631,1150)" d="m0 0h5l2 5 4 1-1 4-4-1h-3v-2h-3l-1 5h-1l1-9 1 2 4 1-1-5z" fill="#E1D8D5"/>
<path transform="translate(791,1063)" d="m0 0 3 1-5 6-5 3h-3l-1-4 5-3z" fill="#969DC4"/>
<path transform="translate(775,1037)" d="m0 0 14 1 1 3h-8v3l-6-2z" fill="#AFABBA"/>
<path transform="translate(671,804)" d="m0 0h8l-2 2 2 2-10 3h-7l-2-2 8-1h3v-2l-2-1z" fill="#643C3C"/>
<path transform="translate(577,1923)" d="m0 0 1 3-1 2h-2v3h9l-2 2h-13l2-4 5-5z" fill="#A9A6B8"/>
<path transform="translate(782,1840)" d="m0 0 4 2 8 6 4 7v2h2v2h2l-1 2-4-2-6-10-9-7z" fill="#171410"/>
<path transform="translate(798,1740)" d="m0 0 10 1v7l-6-1-4-4z" fill="#282320"/>
<path transform="translate(644,1230)" d="m0 0h25l-2 2-5 1h-11l-7-2z" fill="#443A35"/>
<path transform="translate(777,1127)" d="m0 0 5 5 2 4 1 11-3 1-4-2 2-1 1-7-3-7z" fill="#C1BCC9"/>
<path transform="translate(663,968)" d="m0 0 1 2-4 12h2v3l-5 2v-3h-3v-4h5l1-5z" fill="#B7B6C8"/>
<path transform="translate(761,1898)" d="m0 0h2l3 8-1 3-2-1-1 7-3-1 2-7 1-3h-3z" fill="#7D6967"/>
<path transform="translate(565,1900)" d="m0 0h2v2l-2 1-2 4-10 1-2-2 11-5z" fill="#40332E"/>
<path transform="translate(784,1435)" d="m0 0 2 4 4 1 4 2v2l6 2-1 3-8-3-7-7z" fill="#40332F"/>
<path transform="translate(794,1384)" d="m0 0 5 2 3 2v5l-5-2-10-1-4-2 2-1 9 1 2-1z" fill="#423731"/>
<path transform="translate(652,975)" d="m0 0h2l-1 16-1 2h-4l2-17z" fill="#ACACC2"/>
<path transform="translate(718 2e3)" d="m0 0 11 1 3 2-10 2h-7l-1-3z" fill="#493F42"/>
<path transform="translate(582,1937)" d="m0 0 3 1-2 2-19 1-13-2v-1h27z" fill="#26211C"/>
<path transform="translate(618,1932)" d="m0 0 3 3v2l-4 1v-2l-8 4-9 3-4-1 12-4h2l1-3 5-2z" fill="#1A1713"/>
<path transform="translate(532,1329)" d="m0 0h4l-1 7-4 1v2l-3-1v-5z" fill="#62544F"/>
<path transform="translate(704,1225)" d="m0 0h18v1l-13 3h-9l1-3z" fill="#302825"/>
<path transform="translate(782,945)" d="m0 0 1 4-3 10-3 6h-2l-1 3-1-4 7-14z" fill="#C8C3CB"/>
<path transform="translate(643,837)" d="m0 0 6 2 3 7-5 3-2-1 2-6-8-2v-2z" fill="#633B3B"/>
<path transform="translate(696,1980)" d="m0 0 4 1 6 4v4l10 3-3 1-15-6v-2h3z" fill="#6B5953"/>
<path transform="translate(597,1927)" d="m0 0 3 1-1 2-8 3-1 2-8 2h-7v-2l12-2 3-3z" fill="#62514D"/>
<path transform="translate(638,1223)" d="m0 0h2l-1 4 5 4h-12l-1-3 1-2z" fill="#9199C3"/>
<path transform="translate(766,1898)" d="m0 0 4 2 5 2-3 8h-2v-2h-2l-1-4z" fill="#5C504F"/>
<path transform="translate(805,1804)" d="m0 0 2 3-1 20-3 3 1-18-4-1 1-2 4 1z" fill="#26211D"/>
<path transform="translate(589,1541)" d="m0 0h9v8l-5-2-4-3z" fill="#191611"/>
<path transform="translate(639,1214)" d="m0 0 3 1v7l-5 1-5-5v-3l5 1v3z" fill="#CCC6CC"/>
<path transform="translate(623,1209)" d="m0 0h1v9l-2 3-6 1-4-2 5-3 4-3h1z" fill="#959DC4"/>
<path transform="translate(738,778)" d="m0 0h5l-1 3h5l2-2 2 5-5 3-4-1-1-2 2-1-4-1z" fill="#443934"/>
<path transform="translate(701,736)" d="m0 0 7 1 7 5-1 2h-7l-4-2h4v-2l-5-2z" fill="#6E6A75"/>
<path transform="translate(755,1961)" d="m0 0h3v2l-9 4 1 2-7 1 1-5z" fill="#675852"/>
<path transform="translate(669,789)" d="m0 0h4l1 4-2 5 2 1h-11l1-3 4-2z" fill="#3A2C2A"/>
<path transform="translate(552,1239)" d="m0 0 2 1-1 6-2 5-3 2-1 4h-1l1-9 3-7z" fill="#171412"/>
<path transform="translate(666,966)" d="m0 0 3 1v6h2l-1 5-5 8-1-3 3-10z" fill="#CDC7CD"/>
<path transform="translate(584,1949)" d="m0 0h12l-2 2-11 2-10-1v-1z" fill="#6F5951"/>
<path transform="translate(804,1584)" d="m0 0h3l2 5 6 1 1-3 1 7-7-1-5-6z" fill="#453932"/>
<path transform="translate(728,1073)" d="m0 0 4 5 3 4-1 5-3-1-2-5-3-3 2-1z" fill="#BCB8C7"/>
<path transform="translate(655,924)" d="m0 0h3v2h2l2 9-5-1-2-3z" fill="#625752"/>
<path transform="translate(807,1787)" d="m0 0h1l1 15h-2v5h-1v-7l-4-2v-2h3l1-8z" fill="#2C2522"/>
<path transform="translate(670,1720)" d="m0 0 2 4 1 5h1v9l-3 2-1-4z" fill="#2B2623"/>
<path transform="translate(583,1603)" d="m0 0 3 3 2 7v5l-3 2-1-1z" fill="#25211F"/>
<path transform="translate(583,1529)" d="m0 0h9l5 3-1 3-9-2z" fill="#241F19"/>
<path transform="translate(815,1819)" d="m0 0 2 2 4 12 1 1v8l-3-4-4-16z" fill="#413530"/>
<path transform="translate(808,1817)" d="m0 0 3 1v3l3 1v5h-4-3z" fill="#241F18"/>
<path transform="translate(673,1768)" d="m0 0 4 1v6l2 1-1 7-2-2-4-10z" fill="#191612"/>
<path transform="translate(705,1224)" d="m0 0h28l2 2-11 1-2-1h-9l-8-1z" fill="#513936"/>
<path transform="translate(710,1046)" d="m0 0h2v12l-4 3-2-3v-5l3 1v-6z" fill="#BBB7C6"/>
<path transform="translate(759,937)" d="m0 0 1 4 1 3-5 9h-1v-8l3-7z" fill="#CCC6CC"/>
<path transform="translate(664,833)" d="m0 0 3 1v6h-3l-10-2 2-2 8-1z" fill="#5B3838"/>
<path transform="translate(693,735)" d="m0 0h7l-3 2-6 3-1 2 2 2-7 2 2-3v-7z" fill="#615857"/>
<path transform="translate(646,1166)" d="m0 0h2v3l6 1v1h-9v2l5 2-5 4-1-1v-10h2z" fill="#CBC5CB"/>
<path transform="translate(763,1062)" d="m0 0 2 1 3-1 2 1-1 10-5-5z" fill="#AEAABA"/>
<path transform="translate(767 1e3)" d="m0 0 2 2-5 12-2 2v-8-3z" fill="#B9B6C7"/>
<path transform="translate(646,974)" d="m0 0 4 1v12l-1-4-4 3v-7z" fill="#CCC6CC"/>
<path transform="translate(579,1925)" d="m0 0 4 1 2 2v3h-10v-3z" fill="#CCC6CC"/>
<path transform="translate(624,1886)" d="m0 0 2 4-1 2-6 2-4-1h3v-2l-2-1 3-3z" fill="#151311"/>
<path transform="translate(594,981)" d="m0 0h3l-1 5-9 8h-2l2-4 4-4h2z" fill="#C4BFCA"/>
<path transform="translate(720,829)" d="m0 0 5 1 2 2-1 5-3 2-3-6z" fill="#613B3A"/>
<path transform="translate(523,1943)" d="m0 0 8 4 1 6-4-2-7-6z" fill="#191611"/>
<path transform="translate(625,1874)" d="m0 0 2 1-6 8-5 4-1 4-2 4 1-9 3-4h2l2-4z" fill="#665853"/>
<path transform="translate(638,1877)" d="m0 0 3 2-1 5h-13l1-2 8-1v-3z" fill="#60514D"/>
<path transform="translate(801,1351)" d="m0 0h2v14l-5-3z" fill="#BC7558"/>
<path transform="translate(779,1020)" d="m0 0h2l2 3 1 7 5 2v2l-7 1 3-4-4-2-2-6-2-2z" fill="#B9B6C7"/>
<path transform="translate(695,989)" d="m0 0h6l6 4 1 3-10-2z" fill="#B9B6C7"/>
<path transform="translate(712,967)" d="m0 0 4 3-1 8h-5l1-8z" fill="#B9B6C7"/>
<path transform="translate(737,967)" d="m0 0 5 2 5 6 1 7h-2l-4-9-4-2z" fill="#BEBAC8"/>
<path transform="translate(720,864)" d="m0 0 1 2-1 12 3 1-3 5-2-2v-14z" fill="#604642"/>
<path transform="translate(668,741)" d="m0 0h2l-2 5-5 8-3-1 1-1 1-7 4-1z" fill="#39302B"/>
<path transform="translate(626,1897)" d="m0 0 3 1v1l7 1v3h-6v-1h-11l2-4z" fill="#67554E"/>
<path transform="translate(573,1896)" d="m0 0v3l-4 4h-2l1 2 3 1-1 2-7-1 2-5h2l1-3z" fill="#28231C"/>
<path transform="translate(808,1762)" d="m0 0 2 2-1 14-1 9h-1v-21z" fill="#282320"/>
<path transform="translate(685,1177)" d="m0 0 5 3v8l-2-3-9-3v-1h7z" fill="#CCC6CC"/>
<path transform="translate(780,1149)" d="m0 0h4v2l-4 1v2h-3l-2 6-1 2h-2l-1 3-2-1 8-12z" fill="#959DC5"/>
<path transform="translate(553,1030)" d="m0 0 3 4 5 2-1 4-9-1z" fill="#8494C6"/>
<path transform="translate(638,918)" d="m0 0 3 4-1 4v-2l-5-1v6l1 2-2 4-1-8-2-1z" fill="#9299BD"/>
<path transform="translate(718,818)" d="m0 0 3 1 5-1-3 1 1 1h5l1 2-4 1-1 2-5-1-2-3z" fill="#573736"/>
<path transform="translate(715,819)" d="m0 0 5 2v3l3 1h-4l-1 3-4-2-3-1 2-5 2 3z" fill="#BC7558"/>
<path transform="translate(569,1936)" d="m0 0 13 1-4 2h-18l-4-2z" fill="#3F312E"/>
<path transform="translate(741,1394)" d="m0 0h2v9l-2 6h-2v-13z" fill="#191611"/>
<path transform="translate(642,1238)" d="m0 0 1 2h-2l2 5-4 2-1 2-2-5v-4z" fill="#413732"/>
<path transform="translate(756,1227)" d="m0 0 5 1-4 4 5 2v1l-15 1 2-2 4-1 3-3z" fill="#292320"/>
<path transform="translate(640,915)" d="m0 0 2 3v2h3l-1 11-2-2-3-9z" fill="#655A57"/>
<path transform="translate(703,795)" d="m0 0 4 5 1 4 2-1-1 4-4-2-3-3v-4l-1-2z" fill="#382C29"/>
<path transform="translate(650,779)" d="m0 0 1 3-4 5-6 4-4 4 1 2-4-1 5-7 6-4h2l2-5z" fill="#372A28"/>
<path transform="translate(716,757)" d="m0 0 4 2 7 1v2l4-1v3l-7-1-2-1-6 2z" fill="#292421"/>
<path transform="translate(797,1959)" d="m0 0 3 1v3l-1 3-4 2h-4l2-4z" fill="#2D2724"/>
<path transform="translate(766,1342)" d="m0 0 1 3-9 13-3 2 2-5 8-12z" fill="#D98F6A"/>
<path transform="translate(521,1331)" d="m0 0 4 1v6l1 5-3 1v-2h-2z" fill="#1F1B17"/>
<path transform="translate(693,1220)" d="m0 0 12 1v3 1l-7 1-6-2 4-2z" fill="#C3BEC6"/>
<path transform="translate(768,1092)" d="m0 0h3v3h-2v4l3 1v5l-4 2z" fill="#9899B9"/>
<path transform="translate(583,978)" d="m0 0h2l3 4-1 5-4 4z" fill="#E2D8D6"/>
<path transform="translate(647,1139)" d="m0 0 2 1-1 14-2 6h-1l1-15z" fill="#BEBAC7"/>
<path transform="translate(775,1090)" d="m0 0 4 1-3 5-3 2h-3l1-4 1-3z" fill="#CCC6CC"/>
<path transform="translate(709,749)" d="m0 0 6 4-3 3-8-1 2-5z" fill="#473B36"/>
<path transform="translate(610,1907)" d="m0 0 1 2-6 9-2 2 1 4-6-1v-2h2l2-4 6-7z" fill="#B2ACB8"/>
<path transform="translate(801,1868)" d="m0 0 2 1v10l-4 2v-2l-5-2v-3l5 2h2l-1-7z" fill="#332A26"/>
<path transform="translate(787,1437)" d="m0 0h5l5 5 3 2v2h-4v-2h-2v-2l-4-1-3-2z" fill="#282320"/>
<path transform="translate(760,1227)" d="m0 0h13l-1 2-9 1-2 3 2 1-7-1 4-5z" fill="#40342F"/>
<path transform="translate(650,1143)" d="m0 0 5 1 2 1v7l-4-1-1-5h-2z" fill="#B9B6C7"/>
<path transform="translate(736,825)" d="m0 0h1v8l-4 5-4 3-3-1 4-3 1-8h1l1 5z" fill="#CA8261"/>
<path transform="translate(641,807)" d="m0 0 2 1-5 5 2 9-2-1v-3h-2l-1 2-1-5z" fill="#6E433F"/>
<path transform="translate(715,743)" d="m0 0 6 1 2 7h-5v-2l-3-1 3-1v-2h-3z" fill="#544A48"/>
<path transform="translate(706,1980)" d="m0 0h9l4 3-8 1-6-2z" fill="#2E2522"/>
<path transform="translate(618,1901)" d="m0 0h14l-2 2-14 1-5 3-1-3z" fill="#C2A7A3"/>
<path transform="translate(737,1599)" d="m0 0h4l4 4 7 1-2 1 1 3-6-2-8-5z" fill="#27221E"/>
<path transform="translate(721,964)" d="m0 0h1v7h2l1 3-1 2 3 2h-7z" fill="#BCB8C7"/>
<path transform="translate(690,778)" d="m0 0 4 2v3l1 3h2v3l-5 1-1-4z" fill="#362A27"/>
<path transform="translate(693,772)" d="m0 0 3 3-1 4h-4l-1 2-3-5z" fill="#3B2C2A"/>
<path transform="translate(607,1852)" d="m0 0h1v6l-4 8-1-3v-2l-4 3 2-4z" fill="#2D2725"/>
<path transform="translate(776,1378)" d="m0 0 5 1-1 2-15 2 1-3z" fill="#483733"/>
<path transform="translate(646,911)" d="m0 0h2v12l-2 2v-8h-3l2-5z" fill="#231F1C"/>
<path transform="translate(649,908)" d="m0 0 1 2-2 2-3 1-2 4h3l-1 4-3-1-1-6 5-5z" fill="#443A34"/>
<path transform="translate(613,1908)" d="m0 0h1l1 6v12h-3v-14z" fill="#2E2722"/>
<path transform="translate(787,1470)" d="m0 0 4 5 9 10 2 4-7-6-7-8z" fill="#413630"/>
<path transform="translate(766,1345)" d="m0 0 2 1-7 13-5 2 2-4z" fill="#322423"/>
<path transform="translate(652,1223)" d="m0 0 7 1-3 2-5 2-5-1 1-3z" fill="#CCC6CC"/>
<path transform="translate(548,1108)" d="m0 0h10l10 2 1 2-9-1-12-2z" fill="#7281B4"/>
<path transform="translate(825,1073)" d="m0 0 9 1 4 4v2l-6-2-7-4z" fill="#CCC6CC"/>
<path transform="translate(639,811)" d="m0 0 1 4v2l5-1 6 2-3 1h-5l-3 3-3-9z" fill="#BC7558"/>
<path transform="translate(739,776)" d="m0 0h8l1 5-3 1-3-1v-2l-4-2z" fill="#292421"/>
<path transform="translate(564,1307)" d="m0 0 2 1-3 11-2 5-2-1 3-10z" fill="#302925"/>
<path transform="translate(737,826)" d="m0 0h1v8l-5 8-4 4-3-1 5-4 5-8z" fill="#503534"/>
<path transform="translate(659,819)" d="m0 0 5 2 3 4-1 2h-3l-4-5z" fill="#643C3C"/>
<path transform="translate(663,799)" d="m0 0h2v2l7 1-3 2-7 2-2-4h2z" fill="#181510"/>
<path transform="translate(727,755)" d="m0 0 3 1v3l-3 1h-7l-3-3 7-1 3 1z" fill="#463B37"/>
<path transform="translate(704,1970)" d="m0 0h2v2h-4l3 6 1 3-3-1-5-5 1-3z" fill="#382F2B"/>
<path transform="translate(771,1933)" d="m0 0 2 4-2 7-4-2 1-5z" fill="#403631"/>
<path transform="translate(623,1879)" d="m0 0 2 1-1 4-2 2h-4l-1 3h-2l2-4 4-2z" fill="#BB8B7B"/>
<path transform="translate(676,1758)" d="m0 0 2 2 1 15h-2l-2-8z" fill="#221F1F"/>
<path transform="translate(657,1217)" d="m0 0 11 1 1 2-6 2h-4v-4z" fill="#BDB9C6"/>
<path transform="translate(642,1169)" d="m0 0h1v8l-2 4h-3l-1 3-2-5h6l-1-5z" fill="#BAB6C6"/>
<path transform="translate(780,1171)" d="m0 0 1 4-3 9-5 5 2-5z" fill="#7281B4"/>
<path transform="translate(637,1128)" d="m0 0h5l2 5h-11v-2h2v-2z" fill="#9EA4C5"/>
<path transform="translate(664,1032)" d="m0 0 2 1v12l-2 1-1-3v-8z" fill="#7281B4"/>
<path transform="translate(694,987)" d="m0 0 10 1 3 2-4 1-7-1-2 5h-1v-7z" fill="#CFC8CD"/>
<path transform="translate(691,966)" d="m0 0 1 3-1 5-3 3-4 7-1-2z" fill="#C2BECA"/>
<path transform="translate(674,742)" d="m0 0 3 1-4 8-2 6h-1l1-10z" fill="#302925"/>
<path transform="translate(769,1985)" d="m0 0 2 1-1 3-9 3-2-2h3v-2z" fill="#493E3A"/>
<path transform="translate(766,1971)" d="m0 0m-2 1h7l-1 2-12 3-2 2-1-2 3-3z" fill="#3E312D"/>
<path transform="translate(770,1932)" d="m0 0 1 2-3 5 1 4 4 7-3-1-5-7 2-7h2z" fill="#83665C"/>
<path transform="translate(585,1918)" d="m0 0 2 1-5 4-2 1-7 1-4 1v-2z" fill="#58453D"/>
<path transform="translate(792,1877)" d="m0 0 5 4 1 5 3 1v1h-7l2-2-4-6z" fill="#191611"/>
<path transform="translate(792,1635)" d="m0 0 10 2 1-2v6l-2 1-9-6z" fill="#27221E"/>
<path transform="translate(560,1330)" d="m0 0h4l-3 9-4-2 1-4h2z" fill="#1D1917"/>
<path transform="translate(759,1329)" d="m0 0h2v10l-1 2h-3z" fill="#643C3C"/>
<path transform="translate(795,1098)" d="m0 0 2 3 11 2v1l-16-1-2-2z" fill="#CCC6CC"/>
<path transform="translate(699,943)" d="m0 0m-2 1 2 1-5 9-3 1 1-4zm-8 11 2 1-2 1z" fill="#A0A5C5"/>
<path transform="translate(652,946)" d="m0 0h5l6 4-3 4-2-2-6-5z" fill="#989EC4"/>
<path transform="translate(687,1920)" d="m0 0 2 1-1 2 5 1 1 2-3 1-6-2v-3z" fill="#1B1814"/>
<path transform="translate(794,1891)" d="m0 0 3 1-3 3h-3l-2 4-2-4 4-3z" fill="#282320"/>
<path transform="translate(795,1878)" d="m0 0 5 2 2-1-1 8-3-1-3-6z" fill="#26211C"/>
<path transform="translate(772,1798)" d="m0 0 4 2 3 7-3 1-4-8z" fill="#241F19"/>
<path transform="translate(763,1153)" d="m0 0 5 1-1 6-3 3-1-3z" fill="#BEBAC8"/>
<path transform="translate(735,1083)" d="m0 0 5 1 1 4-5 1-2-1z" fill="#C8C2CA"/>
<path transform="translate(743,822)" d="m0 0 3 1 1 5-2 5h-2z" fill="#1B191C"/>
<path transform="translate(749,784)" d="m0 0 4 2v6l-1-2-4 1-1-5z" fill="#2B2725"/>
<path transform="translate(735,764)" d="m0 0h6l1 3-6 2zm-1 4 2 2-9 1v-1z" fill="#141211"/>
<path transform="translate(595,1914)" d="m0 0h2v5l-3 2h-4l2-4z" fill="#E2D8D6"/>
<path transform="translate(788,1902)" d="m0 0 3 1-1 2-2-1-1 7-3 1-3-2h3v-4h2z" fill="#745B51"/>
<path transform="translate(635,1896)" d="m0 0 2 1v5l-1-2h-10l2-3z" fill="#362D29"/>
<path transform="translate(641,1884)" d="m0 0v3h-7l-1 4h-3v-5z" fill="#26211B"/>
<path transform="translate(763,1865)" d="m0 0 10 3 5 2-3 1-5-1v2l-3-1-1-3z" fill="#382E2A"/>
<path transform="translate(657,1609)" d="m0 0h6l2 1-1 4-6-1-2-3z" fill="#221F1C"/>
<path transform="translate(788,1607)" d="m0 0h7l2 1v3l-9-1z" fill="#171410"/>
<path transform="translate(653,1587)" d="m0 0 5 2 3 4v2l-4-1-4-4z" fill="#171510"/>
<path transform="translate(742,1547)" d="m0 0 5 1 1 2-2 2-5 1-1-4z" fill="#282320"/>
<path transform="translate(734,1398)" d="m0 0h1v7l-3 10-2-3z" fill="#191611"/>
<path transform="translate(637,1158)" d="m0 0 4 1 1 5h-3l-4-2-1-3z" fill="#CCC6CC"/>
<path transform="translate(796,1065)" d="m0 0 1 4-1 4h-8l5-5z" fill="#CCC6CC"/>
<path transform="translate(776,1946)" d="m0 0 1 2 8-1-4 3-7 4v-7z" fill="#423731"/>
<path transform="translate(548,1929)" d="m0 0 4 1-5 2-1 3 3 1-6-1-1-4z" fill="#423731"/>
<path transform="translate(546,1911)" d="m0 0 3 1-1 2h-3l-1 2h-7v-2z" fill="#26211C"/>
<path transform="translate(608,1908)" d="m0 0 1 2-7 8-2 3h-2l1-4 5-5h2z" fill="#CCC6CC"/>
<path transform="translate(600,1904)" d="m0 0 2 1-2 4-2 1h-6l4-4z" fill="#544842"/>
<path transform="translate(739,1898)" d="m0 0 2 1-5 5-6 4-3 1 1-3 10-6z" fill="#1C1914"/>
<path transform="translate(628,1887)" d="m0 0h2l1 5-7 1-1 3v-3l-2-1h4l1-3h2z" fill="#342D28"/>
<path transform="translate(685,1865)" d="m0 0h2l-1 5-1 2-6-1 5-5z" fill="#3D332E"/>
<path transform="translate(784,1403)" d="m0 0 3 3 1 5-6-3-1-4z" fill="#423731"/>
<path transform="translate(770,1086)" d="m0 0h12l5 1v1l-13 1-4 3z" fill="#D1CACE"/>
<path transform="translate(685,1053)" d="m0 0 5 1 5 3 1 2-6-2-2-1v3h-2z" fill="#BEBAC8"/>
<path transform="translate(654,942)" d="m0 0 4 1 6 5-1 2-5-2z" fill="#8692BF"/>
<path transform="translate(716,1943)" d="m0 0 4 2v3l-3 1-1 3-2-4z" fill="#0D0C0C"/>
<path transform="translate(753,1624)" d="m0 0h14v1l-8 1 5 3-2 1-9-5z" fill="#27221E"/>
<path transform="translate(779,1462)" d="m0 0 2 3v14h-1l-2-12z" fill="#625752"/>
<path transform="translate(778,1425)" d="m0 0 1 4-2 1v4h-3v-3h-2l-2-4h3l1 2h2z" fill="#3B2C2A"/>
<path transform="translate(782,1423)" d="m0 0 5 5 3 5h-2l-1-2-3-1-1 3-1-1z" fill="#423731"/>
<path transform="translate(697,931)" d="m0 0h9v3l-9 1z" fill="#959DC5"/>
<path transform="translate(755,911)" d="m0 0h2l-1 4 4-1v2h-3l-2 6h-1v-10z" fill="#CCC6CC"/>
<path transform="translate(683,1966)" d="m0 0 9 2 1-1h6l-2 2-2-1v2h-8z" fill="#191611"/>
<path transform="translate(611,1912)" d="m0 0 2 4-2 8-3 1 2-11z" fill="#62534E"/>
<path transform="translate(619,1893)" d="m0 0h4v3l-7 2-1-4z" fill="#AD9189"/>
<path transform="translate(688,1892)" d="m0 0h3l3 12-2-1v-2h-2l-1-7-2-1z" fill="#282320"/>
<path transform="translate(787,1877)" d="m0 0h2l2 7h-8l-1-3 5 1z" fill="#27221F"/>
<path transform="translate(729,1561)" d="m0 0 1 2v11l1 4-3-3-1-9z" fill="#191611"/>
<path transform="translate(537,1277)" d="m0 0h1v12h-2l-1-5-2-1z" fill="#1F1B17"/>
<path transform="translate(646,1135)" d="m0 0 2 1v2l4 2 5 5-6-2-5-4z" fill="#E0D7D5"/>
<path transform="translate(799,1095)" d="m0 0h5l-3 2-10 3-3-2 5-2z" fill="#C4BFC8"/>
<path transform="translate(732,1093)" d="m0 0 3 2-1 6-3 1v-8z" fill="#CCC6CC"/>
<path transform="translate(720,1063)" d="m0 0 8 8-1 2-4-1-4-8z" fill="#B9B6C7"/>
<path transform="translate(670,1029)" d="m0 0 5 2v5l-2 1v-2h-2l-2-4z" fill="#909AC5"/>
<path transform="translate(644,831)" d="m0 0 6 1 5 2v1h-10z" fill="#3E2C2A"/>
<path transform="translate(646,780)" d="m0 0h2l-1 5-7 4 2-5z" fill="#26211D"/>
<path transform="translate(602,1897)" d="m0 0v3l-3 6-2-1 1-2-5 2 2-3h2v-2z" fill="#191612"/>
<path transform="translate(784,1588)" d="m0 0h9l2 4-9-2z" fill="#25201B"/>
<path transform="translate(791,1434)" d="m0 0 7 6 2 1-1 3-6-4z" fill="#40332F"/>
<path transform="translate(637,1152)" d="m0 0h7v6h-2v-2h-5z" fill="#B8B5C6"/>
<path transform="translate(535,1129)" d="m0 0 14 1v1l-15 1z" fill="#7281B4"/>
<path transform="translate(752,1048)" d="m0 0 4 2 1 6-4 1z" fill="#B9B6C7"/>
<path transform="translate(603,994)" d="m0 0 1 3-6 8-1-2 1-6 4-1z" fill="#C0BBC8"/>
<path transform="translate(742,1983)" d="m0 0 1 2-9 2h-9v-1z" fill="#26211D"/>
<path transform="translate(703,1976)" d="m0 0 11 1 1 3h-9z" fill="#633E3D"/>
<path transform="translate(745,1963)" d="m0 0 3 1-4 1v2l2 2-7 1 2-4-2-1z" fill="#4C423D"/>
<path transform="translate(789,1944)" d="m0 0h4l-2 4-4 3-2-1 2-2-2-2z" fill="#423631"/>
<path transform="translate(816,1741)" d="m0 0 3 4-2 4-3-1v-6z" fill="#282320"/>
<path transform="translate(806,1607)" d="m0 0 4 1-1 5-5-2v-3z" fill="#282320"/>
<path transform="translate(800,1606)" d="m0 0 6 1-2 1v3h-3v6h-1l-1-6z" fill="#392C2A"/>
<path transform="translate(741,1599)" d="m0 0 9 2-1 3-6-1z" fill="#221E17"/>
<path transform="translate(528,1333)" d="m0 0 1 2 7-2-2 4h-3v2l-3-1z" fill="#5F3A3A"/>
<path transform="translate(593,1246)" d="m0 0h2v9l-2 2-2-5z" fill="#2C2623"/>
<path transform="translate(676,1226)" d="m0 0 14 1v1l-15 1z" fill="#A3A3B9"/>
</svg>
