<?xml version="1.0" encoding="UTF-8"?>
<svg version="1.1" viewBox="0 0 2048 1922" width="1280" height="1280" xmlns="http://www.w3.org/2000/svg">
<path transform="translate(0)" d="m0 0h2048v1922h-2048z" fill="#FDFDFD"/>
<path transform="translate(1304,364)" d="m0 0h24l29 3 29 6 20 6 21 8 26 12 18 10 18 12 16 12 14 11 15 12 6 3 13-2 29-8 32-10 29-10 31-13 27-13 12-8 12-9h3l-1 7-13 29-12 23-10 17-9 13-8 10-12 14-12 12-8 7-13 11-12 9-7 6-2 6 27-3 21-5 25-7 41-12 21-8 21-9h3l-1 4-11 13-10 13-9 10-9 11-10 11-7 8-10 10-7 8-24 24-8 7-11 10-11 9-14 11-8 7v17l1 11v28l-3 49-5 46-10 58-12 50-10 34-16 45-12 30-12 27-11 24-10 21-13 23-9 17-15 24-16 23-7 11-12 17-12 16-18 22-12 14-9 11-7 7-1 2h-2l-2 4-37 37-8 7-13 12-11 9-13 11-13 10-18 14-18 13-29 19-21 13-24 14-35 18-26 12-27 11-28 10-40 13-54 14-51 11-19 3-60 7-19 2-22 1h-46l-24-1-46-5-40-5-30-5-44-9-39-10-31-10-30-11-24-10-40-17-20-10-19-10-24-13-16-8-17-8-1-2h30l12 1 37 1 46-3 42-5 38-7 30-7 31-9 29-11 28-12 22-11 20-11 17-10 16-9 18-11 14-9 7-5v-3l-9-3-41-7-24-7-19-7-19-8-22-12-11-7-7-4-20-14-11-9-15-14-9-9-8-10-14-18-15-23-10-18-9-17-8-16-3-5v-4l2-1h18l8 1 30 1h18l30-1 18-2 4-1v-2l-12-5-20-8-29-12-21-10-17-10-19-14-15-14-7-6v-2h-2l-7-8-12-13-8-10-13-19-11-18-14-27-10-28-8-26-5-24-2-14-1-17-1-10 5 1 27 10 25 8 38 10 22 5 12 1 3-1-1-4-11-9-13-11-15-14-13-13-7-8-10-13-8-13-13-24-11-21-10-25-7-25-6-29-5-33v-12l3-27 6-31 9-31 9-26 11-26 3-5 4 2 11 12 11 14 11 13 9 10 33 33 8 7 10 9 14 12 16 13 13 10 21 16 20 14 30 20 20 12 19 11 26 14 31 15 29 12 38 14 35 12 42 12 41 9 40 7 23 3 53 5h8l3-2v-10l-6-19-2-14v-27l2-22 4-23 7-27 9-27 11-26 10-19 12-19 11-16 11-14 14-15 12-11 22-18 18-12 15-9 23-12 26-10 30-8 24-5z" fill="#03A1FA"/>
<path transform="translate(1614,759)" d="m0 0h1v18l-4 36-10 58-12 50-10 34-16 45-12 30-12 27-11 24-10 21-13 23-9 17-15 24-16 23-7 11-12 17-12 16-18 22-12 14-9 11-7 7-1 2h-2l-2 4-37 37-8 7-13 12-11 9-13 11-13 10-18 14-18 13-29 19-21 13-24 14-35 18-26 12-27 11-28 10-40 13-54 14-51 11-19 3-26 3h-9l-5-1-15-1 4-2 5-2 3-2 39-6 15-9 9-4 3-1 1-3 10-3 15-3 10-5 5 1 7-1h3l9-2 1-2 3 1 37-11 21-6 3-1 5-2 8-1 7-1 7-3 6-1 7-2 11-4 10-4 21-9 17-9 16-8 23-12 9-5 19-12 12-7 5-1 9-5 7-6 5-2 2-4 6-1 2-4 9-3 13-10 10-9h2l1-2 16-12 10-6 5-5 7-6 6-4 4-1 1-2 13-11 13-13 9-11 3-1v-3l3-3h2l2-4 4-2 2-4 7-9 6-9 1-6 5-11 4-10 12-11 2-6 3-2 2-4 8-1-6 8-2 2 8-7 3-1v-2l5-3 4-1-1-1v-7l3-7-4 4-2 4-2 2 1-7 6-18 4-6h2v-5l3-5 2-1 4-10 4-9 8-9 5-3v-3l5-5 5-4 8-14 4-10 5-7 2 4 7-20 8-20 7-17 5-14 9-19 4-9 8-16 7-21 7-18 3-16 7-28 3-16 2-13 3-17 5-23 1-13 3-9 2-7-1-10 3-6h2z" fill="#0292EC"/>
<path transform="translate(1304,364)" d="m0 0h24l29 3 29 6 20 6 21 8 26 12 18 10 18 12 16 12 14 11 15 12 6 3 13-2 29-8 32-10 29-10 31-13 27-13 12-8 12-9h3l-1 7-13 29-12 23-6 10h-8l-4 7-3-2h-3l1-5 6-12h2l-2-5h-12l-4 3-14 1-9 3-15 7-17 5-11 3-6 1h-9l-12-1h-9l-10 3-8 3h-5l-5-1-4 1-6-3-2-3 2-1-10-9-10-5-7-6-4-2v-2l-5-1-9-7-9-5-10-4h-1l1 4-14-7 3-1 2-1-5-1-11-6-5 1-26-10-14-5 1-2 4-1-6-3-1 2-5-2 1-2-5-2-9-2v-1l-9-2h-15l-3 1 2 3-2 1v-2h-16l-1-1h-16l-19 2-14 4-14 5-21 6-22 8-10 3-19 7-18 8-12 7-5 1-1 2-9 2-5 2-2 5-4 3-2 1-2 2-5 3-13 10-4 2v2l-5 4-1 2h-2l-2 4-12 16-1 3h-2l-1 4h-2l-2 5-3 3-1 3h-2l-1 5-2 2-2 5h-2l-1 6-3 5-3 4-2 4-8 17-4 13-3 6-2 9-5 18-4 13-3 13-4 19-2 23 1 26v10l-2 8-3-1-4-12-2-14v-27l2-22 4-23 7-27 9-27 11-26 10-19 12-19 11-16 11-14 14-15 12-11 22-18 18-12 15-9 23-12 26-10 30-8 24-5z" fill="#0291EB"/>
<path transform="translate(406,421)" d="m0 0 4 2 11 12 11 14 11 13 9 10 33 33 8 7 10 9 14 12 16 13 13 10 21 16 20 14 30 20 20 12 19 11 26 14 31 15 29 12 38 14 35 12 42 12 41 9 40 7 23 3 11 1 7 2v1l-7 1h-5l-2-1-15 2-8-1 1-2-27-1-12-3-10-3-19-4h-5v-2h-9v-2l-11-1v-2l-7-1-9-3-17-5-8-3-11-4-10-3-27-9-16-4 7 2v2l6 1-4 1-12-2-14-6v-2l-6-2-5-2v-2l-11-3-16-4-9-3v-2l-6-2-10-5v-2l-5-2-11-7-5-4-3-5-2-3 6 2 8 6 16 9-8-6-8-4-8-7-15-9v-2h-2v-2l-5-1v-2l-5-1-4-2v-2l-5-1v-2l-6-2-8-4v-2l-3-1v-2l-5-2-3-2v-2l-4-1-3-4-9-3-10-7-8-7-2 1-3-5-4-1-1-3 1-2-4-2-5-2-2-4-3-1v-2l-4-1-7-6-2-2-2-1v-2h-2l-2-2h-3v-2l-3-1v-2l-4-2-3-2v-2l-4-2-10-9-6-5-3-1v-2l-4-2-5-5v-2h-2l-4-5-5-5-3-2v-2l-6-3v-2h-2l-1-4h-2l-4-5v-3h-2l-3-4v-2l-3-1v-2l-5-2-2-2-6-1-6 2-5 2-2 5-4 9-5 17-6 22-4 12-1 8-1 4-1 9-2-3 1 6-1 8 1 4-2 2 1 4 1 40 2 12 1 4 5 13 4 4 7 16 6 21 5 21v13l2 8 4 4 3 9 3 2 3 6 2 5-7-4-3-3v-2l-3-1-15-28-9-20-8-24-7-30-6-36-1-8v-12l3-27 6-31 9-31 9-26 11-26z" fill="#0292EC"/>
<path transform="translate(306,1420)" d="m0 0h30l12 1 37 1h28v3l-3 2-13 1-4-1v-3l-12 2-2 2-5 2 8 3 1-3h6l-1 3 5 5 1 3-4 3-4-2-2-4-11 1 1 2 5 1 3 3 7 3 9 2 7 4-1 2 14 7 14 5 16 8 9 2 17 7 14 3 45 15 27 7 25 7 36 6 15 5 27 5 6 2 9 1 6 2 22 4 10 4 4 4v1h-13l-66-8-30-5-44-9-39-10-31-10-30-11-24-10-40-17-20-10-19-10-24-13-16-8-17-8z" fill="#0292EB"/>
<path transform="translate(1765,506)" d="m0 0h3l-1 4-11 13-10 13-9 10-9 11-10 11-7 8-10 10-7 8-24 24-8 7-11 10-11 9-13 10-4 1-4 3h-2l-1-5 4-9 2-5 4-6 11-12 7-6 1-2h2v-2l8-7 10-9 5-5 10-9 1-2h2l2-4 7-7 7-9 6-8-4 2 2-6v-1l-7 6-1-6-3-1-1-1-5 2-11 1-7 2-21 2h-10l-2-2 1-2 21-5 25-7 41-12 21-8z" fill="#0291EB"/>
<path transform="translate(738,1306)" d="m0 0h5l-4 8-7 7-7 4h-2v2l-5 3-7 6-7 4-11 6-13 7-5 4-16 8-6 4-7 3-16 10-6 2-10 5h-3l-1 2-10 3-9 5-19 5-7 3-6 2-10 3-6 1h-4l-1 2-7 2h-7l-7 1-2-1-1 2-17 1-1 1 17-1 10-1-2 2-18 3h-29l4-2h9v-2l-5 1h-15l-21 2-5 1h-13l-11-2 2-2 39-4 33-5 38-8 33-9 24-8 34-14 25-12 26-14 17-10 16-9 18-11 14-9z" fill="#0292EC"/>
<path transform="translate(1725,386)" d="m0 0h3l-1 7-13 29-12 23-6 10h-8l-4 7-3-2h-3l1-5 6-12h2l-2-5h-12l-4 3-14 1-9 3-15 7-17 5-11 3-6 1h-9l-12-1h-9l-10 3h-7l3-6 29-8 32-10 29-10 31-13 27-13 12-8z" fill="#0291EB"/>
<path transform="translate(371,830)" d="m0 0 5 1 4 10 2 9 2 7 2 2 4 12 6 17 8 20 6 22 5 8 2 2 2 5 7 10 8 9 3 5 4 1 6 7 2 8 3 1v2l8 7 5 6v2h2l8 10 2 1v2l3 1 2 5 5 2v3l-4-1-14-12-12-11v-2h-2l-7-8-12-13-8-10-13-19-11-18-14-27-10-28-8-26-2-8v-13z" fill="#0292EC"/>
<path transform="translate(469,1087)" d="m0 0 16 1 5 2 1 7 1 8 5 15 8 11 3 5 7 7 7 8 4 5 6 8 4 11 3 19 4 8 2 2-4-1-9-10-11-14-11-15-11-17-10-18-9-17-8-16-3-5z" fill="#0291EB"/>
<path transform="translate(546,1204)" d="m0 0 4 2 5 2v2l5 2v2l6 2 16 10v2l7 2 8 3 8 2 8 5v2l2 1v2l3 2 2-1 11 6 2 3h3l3 3h3l1 3-4 6-9-1-21-11-11-7-7-4-20-14-11-9-15-14z" fill="#0292EC"/>
<path transform="translate(363,787)" d="m0 0 5 1 27 10 25 8 38 10 22 5 7 1v2h5l-4 2h-7l-2-2h-9l-12-2-4-3h-10l-9-3-4-2-13-2v-2l-9-2-17-6-4-1-1 2-3 1 1 2-7 1v-3h-5l-8-4z" fill="#0293ED"/>
<path transform="translate(1657,496)" d="m0 0h3l-1 4-15 15-3 5-14 11-9 7-7-1 1-8 4-1v-2l7-3-5-2v-2h2l2-4 3-3h4l2-4 9-1 9-6h2v-2z" fill="#0292EC"/>
<path transform="translate(1614,439)" d="m0 0 2 1-1 2h10l-3 3-12 4-3 2-12 3-19 4-1 1-12 2-6 2h-7l3-6 29-8z" fill="#0293ED"/>
<path transform="translate(734,1549)" d="m0 0h76l2 1v2l-15 2h-46l-24-1-2-2h9z" fill="#0295EF"/>
<path transform="translate(1765,506)" d="m0 0h3l-1 4-5 3-3 1-9 2-18 8h-4v2l-7 1-19 5-3-1 4-2 22-7 19-7z" fill="#04A2FB"/>
<path transform="translate(1614,441)" d="m0 0 8 1 3 1-9 4-7 3-17 5-16 3h-5l4-3 5-2 13-3 3-3h4l12-2z" fill="#04A2FB"/>
<path transform="translate(402,809)" d="m0 0 9 1 10 5 11 1 3 2-1 2-4-1-3 2h-9l-1-2-8-4-4-4z" fill="#0291EB"/>
<path transform="translate(395,480)" d="m0 0 1 3-6 20-5 17h-2l1-9 5-15 3-13z" fill="#0291EB"/>
<path transform="translate(585,1086)" d="m0 0h10l-5 5-8 1-22-2v-1l25-1z" fill="#0292EC"/>
<path transform="translate(1614,759)" d="m0 0h1v18l-1 10-3-4-2-5 1-7 2-4h2z" fill="#0295EE"/>
<path transform="translate(506,1510)" d="m0 0 16 4 20 6 1 2-8-1-29-9z" fill="#04A2FB"/>
<path transform="translate(517,1044)" d="m0 0 11 2 6 5v2l-4 1-5-2-3-3-6-3z" fill="#0292EC"/>
<path transform="translate(547,568)" d="m0 0 9 6 8 6-3 2-6-3-6-5z" fill="#0291EB"/>
<path transform="translate(707,663)" d="m0 0 4 1h3l12 6 4 3-4 1-14-7-5-2z" fill="#039FF8"/>
<path transform="translate(522,1417)" d="m0 0m-7 0 7 1-4 2-16 2h-9l4-3h8l9-1z" fill="#04A2FB"/>
<path transform="translate(577,1070)" d="m0 0 9 3 4 4-8-1-8-3v-2z" fill="#0294EE"/>
<path transform="translate(464,1423)" d="m0 0h5v2l-12 2h-11l-1-3 10 1z" fill="#0291EB"/>
<path transform="translate(836,712)" d="m0 0 9 1 7 2 6 2-4 2v-2l-4 1-5-2-7-2z" fill="#0291EB"/>
<path transform="translate(444,768)" d="m0 0h5v3l3 1 2 4-1 3-10-10z" fill="#0291EB"/>
<path transform="translate(1663,424)" d="m0 0 5 1 3 1v2l-2 1h-7z" fill="#04A2FB"/>
<path transform="translate(657,637)" d="m0 0 5 2 9 6-2 1-12-7z" fill="#04A2FB"/>
<path transform="translate(1461,416)" d="m0 0 4 1 5 3 1 3-2 1-5-4v-2l-3-1z" fill="#039CF5"/>
<path transform="translate(980,730)" d="m0 0h11l3 2-4 1-10-2z" fill="#0294EE"/>
</svg>
