<?xml version="1.0" encoding="UTF-8"?>
<svg version="1.1" viewBox="0 0 2048 1927" width="1280" height="1280" xmlns="http://www.w3.org/2000/svg">
<path transform="translate(0)" d="m0 0h2048v1927h-2048z" fill="#4DADF3"/>
<path transform="translate(1198,552)" d="m0 0h40l26 4 20 5 21 8 17 8 21 13 12 9 14 12 8 8 9-1 25-9 29-10 21-9 31-15 9-4 7 1-1 6-20 35-12 17-9 11-11 12-6 7-17 13-10 7-1 2 18-2 27-7 23-7 19-8 14-7h10l1 4-4 7-11 13-7 9-8 10-7 7-7 8-15 15-8 7-10 9-11 9-12 10-1 42-3 40-5 39-7 38-10 40-11 33-11 28-13 28-11 22-14 24-13 22-12 18-10 14-13 17-9 11-10 11-9 11-8 8-7 8-21 21-11 9-9 8-14 11-18 14-30 20-24 14-33 17-29 13-29 11-28 9-36 9-33 6-28 4-32 3-19 1h-62l-36-3-35-5-37-8-35-10-29-10-28-11-28-12-28-13-19-10-4-4 1-4 8-1h37l25-1 29-3 31-6 26-7 21-7 27-11 29-14 22-12 23-14 20-12 1-2-25-2-26-6-20-7-24-11-17-9-14-10-15-13-7-7-9-11-10-13-11-19-12-25-3-8 1-4 21 1h30l18-2 19-4-7-3-24-8-20-9-19-10-17-12-13-11-11-11-9-11-7-10-12-20-8-17-11-33-5-24-2-17v-9l5-1 24 9 32 10 20 5 13 1-5-5-14-11-12-11-5-5-10-11-14-21-11-20-10-25-6-20-4-21-2-20v-13l3-26 6-24 6-17 9-20 5-6 5-1 7 8 12 12 7 8 11 11 8 7 14 13 8 7 10 9 13 11 19 14 16 11 17 11 15 9 18 10 27 14 28 13 33 13 30 10 38 10 50 10 27 4h18l-2-25v-40l3-22 5-20 8-23 12-25 13-19 11-14 11-12 8-7 17-13 19-12 25-12 21-7 21-5z" fill="#FFFEFE"/>
<path transform="translate(589,596)" d="m0 0 5 2 3 2v2h2l3 4v2l3 1v2l6 2 13 11 7 7 12 9 10 7v2l5 2 2 1v2l4 2 11 9 8 7 10 7 11 7 10 7 11 8 17 10 4 3 16 7 12 6 10 4 17 7 22 11 16 7 21 8 16 8 13 8 27 10 16 5 17 5 3 2h-10l-36-8-32-9-27-9-32-13-26-12-22-11-18-10-17-10-20-13-20-14-17-13-13-11-14-13-11-9-11-11-8-7-12-12-7-8-9-9z" fill="#37A2F2"/>
<path transform="translate(1201,542)" d="m0 0h35l21 3 33 7 27 10 19 10 10 8 17 13 3 2v2h2l5 6 5 5 2 7h-2v2l-5-1-8-8-11-9-17-12-21-12-23-10-20-6-27-5-8-1h-40l-22 4-22 6-20 8-23 12-16 11-14 11-11 10-8 7-1-2 3-7 3-5h2l2-4 10-9 5-5 9-7 3-3 22-14 5-3 10-3 13-5 16-4 17-4 14-4z" fill="#37A2F2"/>
<path transform="translate(1494,602)" d="m0 0 3 1v13l1 5 5 1 3 8 3 4 2 11 9 3 2 1v3l-23 11-19 7-29 8-18 4-12 1v-3l9-7 14-10 8-7 7-8 9-10 11-15 10-15z" fill="#36A1F2"/>
<path transform="translate(783,1200)" d="m0 0 16 2 16 1 4 2-4 4-17 10-21 13-34 18-26 12-27 10-15 5-16 3-22 5h-6l1-2 27-9 24-7 25-10 20-9 19-10 7-6 5-2 6-5 6-7 2-3h2v-2l6-3h2v-2l2-1-4-4v-2z" fill="#37A2F2"/>
<path transform="translate(595,828)" d="m0 0h4l4 5 8 7 2 4 4 2 12 11 13 10 5 5v1h-8l-18-4-31-9-26-9-1-3 4-2h10l7-3 5-6 4-3 1-5z" fill="#37A2F2"/>
<path transform="translate(1497,568)" d="m0 0 7 1-4 2-5 1v2l-23 12-24 11-11 4-12 3-15 5h-3l2-4h5v-2l9-4 15-8 6-3 7-2 7-5 12-3 9-4 8-2z" fill="#38A2F2"/>
<path transform="translate(520,1298)" d="m0 0 7 3 19 10 37 17 29 12v2l7 2v1h-7l-26-10-9-4-13-5-25-12-7-4v-2l-5-2-5-4v-2h-2z" fill="#3BA4F2"/>
<path transform="translate(1314,1145)" d="m0 0 1 4-1 2h-2l-1 4-2 3h-2l-2 5-6 8h-2v3h-2l-2 5-7 7h-2v2h-2l-1 3-2-1 5-9 12-14 15-20z" fill="#3AA3F2"/>
<path transform="translate(1507,579)" d="m0 0 1 4-6 12-3 4-2-1 2-8 5-8z" fill="#39A3F2"/>
<path transform="translate(622,1346)" d="m0 0 12 2 5 2-1 3-12-2-4-4z" fill="#3BA4F2"/>
<path transform="translate(650,1356)" d="m0 0 6 1 10 3-2 2-4-1-7-2v-2z" fill="#35A1F2"/>
<path transform="translate(1326,1128)" d="m0 0 1 3-5 7-2-1 1-4z" fill="#39A3F2"/>
<path transform="translate(1422,679)" d="m0 0 1 2 16-1v1l-18 2v-3z" fill="#4EAEF4"/>
</svg>
